<?xml version="1.0" encoding="utf-8" standalone="no"?>
<!DOCTYPE svg PUBLIC "-//W3C//DTD SVG 1.1//EN"
  "http://www.w3.org/Graphics/SVG/1.1/DTD/svg11.dtd">
<svg xmlns:xlink="http://www.w3.org/1999/xlink" width="612pt" height="396pt" viewBox="0 0 612 396" xmlns="http://www.w3.org/2000/svg" version="1.1">
 <metadata>
  <rdf:RDF xmlns:dc="http://purl.org/dc/elements/1.1/" xmlns:cc="http://creativecommons.org/ns#" xmlns:rdf="http://www.w3.org/1999/02/22-rdf-syntax-ns#">
   <cc:Work>
    <dc:type rdf:resource="http://purl.org/dc/dcmitype/StillImage"/>
    <dc:date>2026-06-12T10:46:51.439115</dc:date>
    <dc:format>image/svg+xml</dc:format>
    <dc:creator>
     <cc:Agent>
      <dc:title>Matplotlib v3.11.0, https://matplotlib.org/</dc:title>
     </cc:Agent>
    </dc:creator>
   </cc:Work>
  </rdf:RDF>
 </metadata>
 <defs>
  <style type="text/css">*{stroke-linejoin: round; stroke-linecap: butt}</style>
 </defs>
 <g id="figure_1">
  <g id="patch_1">
   <path d="M 0 396 
L 612 396 
L 612 0 
L 0 0 
z
" style="fill: #ffffff"/>
  </g>
  <g id="axes_1">
   <g id="patch_2">
    <path d="M 59.962813 348.514609 
L 466.56 348.514609 
L 466.56 27.436719 
L 59.962813 27.436719 
z
" style="fill: #ffffff"/>
   </g>
   <g id="patch_3">
    <path d="M 59.962813 348.514609 
L 350.541146 348.514609 
L 350.541146 27.436719 
L 59.962813 27.436719 
z
" clip-path="url(#p80613d7c30)" style="fill: #3b7dd8; opacity: 0.07; stroke: #3b7dd8; stroke-linejoin: miter"/>
   </g>
   <g id="patch_4">
    <path d="M 350.541146 348.514609 
L 466.56 348.514609 
L 466.56 27.436719 
L 350.541146 27.436719 
z
" clip-path="url(#p80613d7c30)" style="fill: #e08a1e; opacity: 0.09; stroke: #e08a1e; stroke-linejoin: miter"/>
   </g>
   <g id="matplotlib.axis_1">
    <g id="xtick_1">
     <g id="line2d_1">
      <path d="M 144.289147 348.514609 
L 144.289147 27.436719 
" clip-path="url(#p80613d7c30)" style="fill: none; stroke: #b0b0b0; stroke-opacity: 0.3; stroke-width: 0.8; stroke-linecap: square"/>
     </g>
     <g id="line2d_2">
      <defs>
       <path id="m0100080dd2" d="M 0 0 
L 0 3.5 
" style="stroke: #000000; stroke-width: 0.8"/>
      </defs>
      <g>
       <use xlink:href="#m0100080dd2" x="144.289147" y="348.514609" style="stroke: #000000; stroke-width: 0.8"/>
      </g>
     </g>
     <g id="text_1">
      <!-- $\mathdefault{10^{0}}$ -->
      <g transform="translate(134.609147 365.854609) scale(0.11 -0.11)">
       <defs>
        <path id="DejaVuSans-14" d="M 794 531 
L 1825 531 
L 1825 4091 
L 703 3866 
L 703 4441 
L 1819 4666 
L 2450 4666 
L 2450 531 
L 3481 531 
L 3481 0 
L 794 0 
L 794 531 
z
" transform="scale(0.015625)"/>
        <path id="DejaVuSans-13" d="M 2034 4250 
Q 1547 4250 1301 3770 
Q 1056 3291 1056 2328 
Q 1056 1369 1301 889 
Q 1547 409 2034 409 
Q 2525 409 2770 889 
Q 3016 1369 3016 2328 
Q 3016 3291 2770 3770 
Q 2525 4250 2034 4250 
z
M 2034 4750 
Q 2819 4750 3233 4129 
Q 3647 3509 3647 2328 
Q 3647 1150 3233 529 
Q 2819 -91 2034 -91 
Q 1250 -91 836 529 
Q 422 1150 422 2328 
Q 422 3509 836 4129 
Q 1250 4750 2034 4750 
z
" transform="scale(0.015625)"/>
       </defs>
       <use xlink:href="#DejaVuSans-14" transform="translate(0 0.746875)"/>
       <use xlink:href="#DejaVuSans-13" transform="translate(63.623047 0.746875)"/>
       <use xlink:href="#DejaVuSans-13" transform="translate(128.203125 42.046875) scale(0.7)"/>
      </g>
     </g>
    </g>
    <g id="xtick_2">
     <g id="line2d_3">
      <path d="M 387.453442 348.514609 
L 387.453442 27.436719 
" clip-path="url(#p80613d7c30)" style="fill: none; stroke: #b0b0b0; stroke-opacity: 0.3; stroke-width: 0.8; stroke-linecap: square"/>
     </g>
     <g id="line2d_4">
      <g>
       <use xlink:href="#m0100080dd2" x="387.453442" y="348.514609" style="stroke: #000000; stroke-width: 0.8"/>
      </g>
     </g>
     <g id="text_2">
      <!-- $\mathdefault{10^{1}}$ -->
      <g transform="translate(377.773442 365.744609) scale(0.11 -0.11)">
       <use xlink:href="#DejaVuSans-14" transform="translate(0 0.665625)"/>
       <use xlink:href="#DejaVuSans-13" transform="translate(63.623047 0.665625)"/>
       <use xlink:href="#DejaVuSans-14" transform="translate(128.203125 41.965625) scale(0.7)"/>
      </g>
     </g>
    </g>
    <g id="xtick_3">
     <g id="line2d_5">
      <path d="M 71.0894 348.514609 
L 71.0894 27.436719 
" clip-path="url(#p80613d7c30)" style="fill: none; stroke: #b0b0b0; stroke-opacity: 0.3; stroke-width: 0.8; stroke-linecap: square"/>
     </g>
     <g id="line2d_6">
      <defs>
       <path id="m4a596bf745" d="M 0 0 
L 0 2 
" style="stroke: #000000; stroke-width: 0.6"/>
      </defs>
      <g>
       <use xlink:href="#m4a596bf745" x="71.0894" y="348.514609" style="stroke: #000000; stroke-width: 0.6"/>
      </g>
     </g>
    </g>
    <g id="xtick_4">
     <g id="line2d_7">
      <path d="M 90.343452 348.514609 
L 90.343452 27.436719 
" clip-path="url(#p80613d7c30)" style="fill: none; stroke: #b0b0b0; stroke-opacity: 0.3; stroke-width: 0.8; stroke-linecap: square"/>
     </g>
     <g id="line2d_8">
      <g>
       <use xlink:href="#m4a596bf745" x="90.343452" y="348.514609" style="stroke: #000000; stroke-width: 0.6"/>
      </g>
     </g>
    </g>
    <g id="xtick_5">
     <g id="line2d_9">
      <path d="M 106.622521 348.514609 
L 106.622521 27.436719 
" clip-path="url(#p80613d7c30)" style="fill: none; stroke: #b0b0b0; stroke-opacity: 0.3; stroke-width: 0.8; stroke-linecap: square"/>
     </g>
     <g id="line2d_10">
      <g>
       <use xlink:href="#m4a596bf745" x="106.622521" y="348.514609" style="stroke: #000000; stroke-width: 0.6"/>
      </g>
     </g>
    </g>
    <g id="xtick_6">
     <g id="line2d_11">
      <path d="M 120.724092 348.514609 
L 120.724092 27.436719 
" clip-path="url(#p80613d7c30)" style="fill: none; stroke: #b0b0b0; stroke-opacity: 0.3; stroke-width: 0.8; stroke-linecap: square"/>
     </g>
     <g id="line2d_12">
      <g>
       <use xlink:href="#m4a596bf745" x="120.724092" y="348.514609" style="stroke: #000000; stroke-width: 0.6"/>
      </g>
     </g>
    </g>
    <g id="xtick_7">
     <g id="line2d_13">
      <path d="M 133.162559 348.514609 
L 133.162559 27.436719 
" clip-path="url(#p80613d7c30)" style="fill: none; stroke: #b0b0b0; stroke-opacity: 0.3; stroke-width: 0.8; stroke-linecap: square"/>
     </g>
     <g id="line2d_14">
      <g>
       <use xlink:href="#m4a596bf745" x="133.162559" y="348.514609" style="stroke: #000000; stroke-width: 0.6"/>
      </g>
     </g>
    </g>
    <g id="xtick_8">
     <g id="line2d_15">
      <path d="M 217.488894 348.514609 
L 217.488894 27.436719 
" clip-path="url(#p80613d7c30)" style="fill: none; stroke: #b0b0b0; stroke-opacity: 0.3; stroke-width: 0.8; stroke-linecap: square"/>
     </g>
     <g id="line2d_16">
      <g>
       <use xlink:href="#m4a596bf745" x="217.488894" y="348.514609" style="stroke: #000000; stroke-width: 0.6"/>
      </g>
     </g>
    </g>
    <g id="xtick_9">
     <g id="line2d_17">
      <path d="M 260.308001 348.514609 
L 260.308001 27.436719 
" clip-path="url(#p80613d7c30)" style="fill: none; stroke: #b0b0b0; stroke-opacity: 0.3; stroke-width: 0.8; stroke-linecap: square"/>
     </g>
     <g id="line2d_18">
      <g>
       <use xlink:href="#m4a596bf745" x="260.308001" y="348.514609" style="stroke: #000000; stroke-width: 0.6"/>
      </g>
     </g>
    </g>
    <g id="xtick_10">
     <g id="line2d_19">
      <path d="M 290.688641 348.514609 
L 290.688641 27.436719 
" clip-path="url(#p80613d7c30)" style="fill: none; stroke: #b0b0b0; stroke-opacity: 0.3; stroke-width: 0.8; stroke-linecap: square"/>
     </g>
     <g id="line2d_20">
      <g>
       <use xlink:href="#m4a596bf745" x="290.688641" y="348.514609" style="stroke: #000000; stroke-width: 0.6"/>
      </g>
     </g>
    </g>
    <g id="xtick_11">
     <g id="line2d_21">
      <path d="M 314.253696 348.514609 
L 314.253696 27.436719 
" clip-path="url(#p80613d7c30)" style="fill: none; stroke: #b0b0b0; stroke-opacity: 0.3; stroke-width: 0.8; stroke-linecap: square"/>
     </g>
     <g id="line2d_22">
      <g>
       <use xlink:href="#m4a596bf745" x="314.253696" y="348.514609" style="stroke: #000000; stroke-width: 0.6"/>
      </g>
     </g>
    </g>
    <g id="xtick_12">
     <g id="line2d_23">
      <path d="M 333.507748 348.514609 
L 333.507748 27.436719 
" clip-path="url(#p80613d7c30)" style="fill: none; stroke: #b0b0b0; stroke-opacity: 0.3; stroke-width: 0.8; stroke-linecap: square"/>
     </g>
     <g id="line2d_24">
      <g>
       <use xlink:href="#m4a596bf745" x="333.507748" y="348.514609" style="stroke: #000000; stroke-width: 0.6"/>
      </g>
     </g>
    </g>
    <g id="xtick_13">
     <g id="line2d_25">
      <path d="M 349.786817 348.514609 
L 349.786817 27.436719 
" clip-path="url(#p80613d7c30)" style="fill: none; stroke: #b0b0b0; stroke-opacity: 0.3; stroke-width: 0.8; stroke-linecap: square"/>
     </g>
     <g id="line2d_26">
      <g>
       <use xlink:href="#m4a596bf745" x="349.786817" y="348.514609" style="stroke: #000000; stroke-width: 0.6"/>
      </g>
     </g>
    </g>
    <g id="xtick_14">
     <g id="line2d_27">
      <path d="M 363.888387 348.514609 
L 363.888387 27.436719 
" clip-path="url(#p80613d7c30)" style="fill: none; stroke: #b0b0b0; stroke-opacity: 0.3; stroke-width: 0.8; stroke-linecap: square"/>
     </g>
     <g id="line2d_28">
      <g>
       <use xlink:href="#m4a596bf745" x="363.888387" y="348.514609" style="stroke: #000000; stroke-width: 0.6"/>
      </g>
     </g>
    </g>
    <g id="xtick_15">
     <g id="line2d_29">
      <path d="M 376.326855 348.514609 
L 376.326855 27.436719 
" clip-path="url(#p80613d7c30)" style="fill: none; stroke: #b0b0b0; stroke-opacity: 0.3; stroke-width: 0.8; stroke-linecap: square"/>
     </g>
     <g id="line2d_30">
      <g>
       <use xlink:href="#m4a596bf745" x="376.326855" y="348.514609" style="stroke: #000000; stroke-width: 0.6"/>
      </g>
     </g>
    </g>
    <g id="xtick_16">
     <g id="line2d_31">
      <path d="M 460.653189 348.514609 
L 460.653189 27.436719 
" clip-path="url(#p80613d7c30)" style="fill: none; stroke: #b0b0b0; stroke-opacity: 0.3; stroke-width: 0.8; stroke-linecap: square"/>
     </g>
     <g id="line2d_32">
      <g>
       <use xlink:href="#m4a596bf745" x="460.653189" y="348.514609" style="stroke: #000000; stroke-width: 0.6"/>
      </g>
     </g>
    </g>
    <g id="text_3">
     <!-- arithmetic intensity (MACs per byte of DRAM traffic) -->
     <g transform="translate(107.329844 381.615312) scale(0.12 -0.12)">
      <defs>
       <path id="DejaVuSans-44" d="M 2194 1759 
Q 1497 1759 1228 1600 
Q 959 1441 959 1056 
Q 959 750 1161 570 
Q 1363 391 1709 391 
Q 2188 391 2477 730 
Q 2766 1069 2766 1631 
L 2766 1759 
L 2194 1759 
z
M 3341 1997 
L 3341 0 
L 2766 0 
L 2766 531 
Q 2569 213 2275 61 
Q 1981 -91 1556 -91 
Q 1019 -91 701 211 
Q 384 513 384 1019 
Q 384 1609 779 1909 
Q 1175 2209 1959 2209 
L 2766 2209 
L 2766 2266 
Q 2766 2663 2505 2880 
Q 2244 3097 1772 3097 
Q 1472 3097 1187 3025 
Q 903 2953 641 2809 
L 641 3341 
Q 956 3463 1253 3523 
Q 1550 3584 1831 3584 
Q 2591 3584 2966 3190 
Q 3341 2797 3341 1997 
z
" transform="scale(0.015625)"/>
       <path id="DejaVuSans-55" d="M 2631 2963 
Q 2534 3019 2420 3045 
Q 2306 3072 2169 3072 
Q 1681 3072 1420 2755 
Q 1159 2438 1159 1844 
L 1159 0 
L 581 0 
L 581 3500 
L 1159 3500 
L 1159 2956 
Q 1341 3275 1631 3429 
Q 1922 3584 2338 3584 
Q 2397 3584 2469 3576 
Q 2541 3569 2628 3553 
L 2631 2963 
z
" transform="scale(0.015625)"/>
       <path id="DejaVuSans-4c" d="M 603 3500 
L 1178 3500 
L 1178 0 
L 603 0 
L 603 3500 
z
M 603 4863 
L 1178 4863 
L 1178 4134 
L 603 4134 
L 603 4863 
z
" transform="scale(0.015625)"/>
       <path id="DejaVuSans-57" d="M 1172 4494 
L 1172 3500 
L 2356 3500 
L 2356 3053 
L 1172 3053 
L 1172 1153 
Q 1172 725 1289 603 
Q 1406 481 1766 481 
L 2356 481 
L 2356 0 
L 1766 0 
Q 1100 0 847 248 
Q 594 497 594 1153 
L 594 3053 
L 172 3053 
L 172 3500 
L 594 3500 
L 594 4494 
L 1172 4494 
z
" transform="scale(0.015625)"/>
       <path id="DejaVuSans-4b" d="M 3513 2113 
L 3513 0 
L 2938 0 
L 2938 2094 
Q 2938 2591 2744 2837 
Q 2550 3084 2163 3084 
Q 1697 3084 1428 2787 
Q 1159 2491 1159 1978 
L 1159 0 
L 581 0 
L 581 4863 
L 1159 4863 
L 1159 2956 
Q 1366 3272 1645 3428 
Q 1925 3584 2291 3584 
Q 2894 3584 3203 3211 
Q 3513 2838 3513 2113 
z
" transform="scale(0.015625)"/>
       <path id="DejaVuSans-50" d="M 3328 2828 
Q 3544 3216 3844 3400 
Q 4144 3584 4550 3584 
Q 5097 3584 5394 3201 
Q 5691 2819 5691 2113 
L 5691 0 
L 5113 0 
L 5113 2094 
Q 5113 2597 4934 2840 
Q 4756 3084 4391 3084 
Q 3944 3084 3684 2787 
Q 3425 2491 3425 1978 
L 3425 0 
L 2847 0 
L 2847 2094 
Q 2847 2600 2669 2842 
Q 2491 3084 2119 3084 
Q 1678 3084 1418 2786 
Q 1159 2488 1159 1978 
L 1159 0 
L 581 0 
L 581 3500 
L 1159 3500 
L 1159 2956 
Q 1356 3278 1631 3431 
Q 1906 3584 2284 3584 
Q 2666 3584 2933 3390 
Q 3200 3197 3328 2828 
z
" transform="scale(0.015625)"/>
       <path id="DejaVuSans-48" d="M 3597 1894 
L 3597 1613 
L 953 1613 
Q 991 1019 1311 708 
Q 1631 397 2203 397 
Q 2534 397 2845 478 
Q 3156 559 3463 722 
L 3463 178 
Q 3153 47 2828 -22 
Q 2503 -91 2169 -91 
Q 1331 -91 842 396 
Q 353 884 353 1716 
Q 353 2575 817 3079 
Q 1281 3584 2069 3584 
Q 2775 3584 3186 3129 
Q 3597 2675 3597 1894 
z
M 3022 2063 
Q 3016 2534 2758 2815 
Q 2500 3097 2075 3097 
Q 1594 3097 1305 2825 
Q 1016 2553 972 2059 
L 3022 2063 
z
" transform="scale(0.015625)"/>
       <path id="DejaVuSans-46" d="M 3122 3366 
L 3122 2828 
Q 2878 2963 2633 3030 
Q 2388 3097 2138 3097 
Q 1578 3097 1268 2742 
Q 959 2388 959 1747 
Q 959 1106 1268 751 
Q 1578 397 2138 397 
Q 2388 397 2633 464 
Q 2878 531 3122 666 
L 3122 134 
Q 2881 22 2623 -34 
Q 2366 -91 2075 -91 
Q 1284 -91 818 406 
Q 353 903 353 1747 
Q 353 2603 823 3093 
Q 1294 3584 2113 3584 
Q 2378 3584 2631 3529 
Q 2884 3475 3122 3366 
z
" transform="scale(0.015625)"/>
       <path id="DejaVuSans-3" transform="scale(0.015625)"/>
       <path id="DejaVuSans-51" d="M 3513 2113 
L 3513 0 
L 2938 0 
L 2938 2094 
Q 2938 2591 2744 2837 
Q 2550 3084 2163 3084 
Q 1697 3084 1428 2787 
Q 1159 2491 1159 1978 
L 1159 0 
L 581 0 
L 581 3500 
L 1159 3500 
L 1159 2956 
Q 1366 3272 1645 3428 
Q 1925 3584 2291 3584 
Q 2894 3584 3203 3211 
Q 3513 2838 3513 2113 
z
" transform="scale(0.015625)"/>
       <path id="DejaVuSans-56" d="M 2834 3397 
L 2834 2853 
Q 2591 2978 2328 3040 
Q 2066 3103 1784 3103 
Q 1356 3103 1142 2972 
Q 928 2841 928 2578 
Q 928 2378 1081 2264 
Q 1234 2150 1697 2047 
L 1894 2003 
Q 2506 1872 2764 1633 
Q 3022 1394 3022 966 
Q 3022 478 2636 193 
Q 2250 -91 1575 -91 
Q 1294 -91 989 -36 
Q 684 19 347 128 
L 347 722 
Q 666 556 975 473 
Q 1284 391 1588 391 
Q 1994 391 2212 530 
Q 2431 669 2431 922 
Q 2431 1156 2273 1281 
Q 2116 1406 1581 1522 
L 1381 1569 
Q 847 1681 609 1914 
Q 372 2147 372 2553 
Q 372 3047 722 3315 
Q 1072 3584 1716 3584 
Q 2034 3584 2315 3537 
Q 2597 3491 2834 3397 
z
" transform="scale(0.015625)"/>
       <path id="DejaVuSans-5c" d="M 2059 -325 
Q 1816 -950 1584 -1140 
Q 1353 -1331 966 -1331 
L 506 -1331 
L 506 -850 
L 844 -850 
Q 1081 -850 1212 -737 
Q 1344 -625 1503 -206 
L 1606 56 
L 191 3500 
L 800 3500 
L 1894 763 
L 2988 3500 
L 3597 3500 
L 2059 -325 
z
" transform="scale(0.015625)"/>
       <path id="DejaVuSans-b" d="M 1984 4856 
Q 1566 4138 1362 3434 
Q 1159 2731 1159 2009 
Q 1159 1288 1364 580 
Q 1569 -128 1984 -844 
L 1484 -844 
Q 1016 -109 783 600 
Q 550 1309 550 2009 
Q 550 2706 781 3412 
Q 1013 4119 1484 4856 
L 1984 4856 
z
" transform="scale(0.015625)"/>
       <path id="DejaVuSans-30" d="M 628 4666 
L 1569 4666 
L 2759 1491 
L 3956 4666 
L 4897 4666 
L 4897 0 
L 4281 0 
L 4281 4097 
L 3078 897 
L 2444 897 
L 1241 4097 
L 1241 0 
L 628 0 
L 628 4666 
z
" transform="scale(0.015625)"/>
       <path id="DejaVuSans-24" d="M 2188 4044 
L 1331 1722 
L 3047 1722 
L 2188 4044 
z
M 1831 4666 
L 2547 4666 
L 4325 0 
L 3669 0 
L 3244 1197 
L 1141 1197 
L 716 0 
L 50 0 
L 1831 4666 
z
" transform="scale(0.015625)"/>
       <path id="DejaVuSans-26" d="M 4122 4306 
L 4122 3641 
Q 3803 3938 3442 4084 
Q 3081 4231 2675 4231 
Q 1875 4231 1450 3742 
Q 1025 3253 1025 2328 
Q 1025 1406 1450 917 
Q 1875 428 2675 428 
Q 3081 428 3442 575 
Q 3803 722 4122 1019 
L 4122 359 
Q 3791 134 3420 21 
Q 3050 -91 2638 -91 
Q 1578 -91 968 557 
Q 359 1206 359 2328 
Q 359 3453 968 4101 
Q 1578 4750 2638 4750 
Q 3056 4750 3426 4639 
Q 3797 4528 4122 4306 
z
" transform="scale(0.015625)"/>
       <path id="DejaVuSans-53" d="M 1159 525 
L 1159 -1331 
L 581 -1331 
L 581 3500 
L 1159 3500 
L 1159 2969 
Q 1341 3281 1617 3432 
Q 1894 3584 2278 3584 
Q 2916 3584 3314 3078 
Q 3713 2572 3713 1747 
Q 3713 922 3314 415 
Q 2916 -91 2278 -91 
Q 1894 -91 1617 61 
Q 1341 213 1159 525 
z
M 3116 1747 
Q 3116 2381 2855 2742 
Q 2594 3103 2138 3103 
Q 1681 3103 1420 2742 
Q 1159 2381 1159 1747 
Q 1159 1113 1420 752 
Q 1681 391 2138 391 
Q 2594 391 2855 752 
Q 3116 1113 3116 1747 
z
" transform="scale(0.015625)"/>
       <path id="DejaVuSans-45" d="M 3116 1747 
Q 3116 2381 2855 2742 
Q 2594 3103 2138 3103 
Q 1681 3103 1420 2742 
Q 1159 2381 1159 1747 
Q 1159 1113 1420 752 
Q 1681 391 2138 391 
Q 2594 391 2855 752 
Q 3116 1113 3116 1747 
z
M 1159 2969 
Q 1341 3281 1617 3432 
Q 1894 3584 2278 3584 
Q 2916 3584 3314 3078 
Q 3713 2572 3713 1747 
Q 3713 922 3314 415 
Q 2916 -91 2278 -91 
Q 1894 -91 1617 61 
Q 1341 213 1159 525 
L 1159 0 
L 581 0 
L 581 4863 
L 1159 4863 
L 1159 2969 
z
" transform="scale(0.015625)"/>
       <path id="DejaVuSans-52" d="M 1959 3097 
Q 1497 3097 1228 2736 
Q 959 2375 959 1747 
Q 959 1119 1226 758 
Q 1494 397 1959 397 
Q 2419 397 2687 759 
Q 2956 1122 2956 1747 
Q 2956 2369 2687 2733 
Q 2419 3097 1959 3097 
z
M 1959 3584 
Q 2709 3584 3137 3096 
Q 3566 2609 3566 1747 
Q 3566 888 3137 398 
Q 2709 -91 1959 -91 
Q 1206 -91 779 398 
Q 353 888 353 1747 
Q 353 2609 779 3096 
Q 1206 3584 1959 3584 
z
" transform="scale(0.015625)"/>
       <path id="DejaVuSans-49" d="M 2375 4863 
L 2375 4384 
L 1825 4384 
Q 1516 4384 1395 4259 
Q 1275 4134 1275 3809 
L 1275 3500 
L 2222 3500 
L 2222 3053 
L 1275 3053 
L 1275 0 
L 697 0 
L 697 3053 
L 147 3053 
L 147 3500 
L 697 3500 
L 697 3744 
Q 697 4328 969 4595 
Q 1241 4863 1831 4863 
L 2375 4863 
z
" transform="scale(0.015625)"/>
       <path id="DejaVuSans-27" d="M 1259 4147 
L 1259 519 
L 2022 519 
Q 2988 519 3436 956 
Q 3884 1394 3884 2338 
Q 3884 3275 3436 3711 
Q 2988 4147 2022 4147 
L 1259 4147 
z
M 628 4666 
L 1925 4666 
Q 3281 4666 3915 4102 
Q 4550 3538 4550 2338 
Q 4550 1131 3912 565 
Q 3275 0 1925 0 
L 628 0 
L 628 4666 
z
" transform="scale(0.015625)"/>
       <path id="DejaVuSans-35" d="M 2841 2188 
Q 3044 2119 3236 1894 
Q 3428 1669 3622 1275 
L 4263 0 
L 3584 0 
L 2988 1197 
Q 2756 1666 2539 1819 
Q 2322 1972 1947 1972 
L 1259 1972 
L 1259 0 
L 628 0 
L 628 4666 
L 2053 4666 
Q 2853 4666 3247 4331 
Q 3641 3997 3641 3322 
Q 3641 2881 3436 2590 
Q 3231 2300 2841 2188 
z
M 1259 4147 
L 1259 2491 
L 2053 2491 
Q 2509 2491 2742 2702 
Q 2975 2913 2975 3322 
Q 2975 3731 2742 3939 
Q 2509 4147 2053 4147 
L 1259 4147 
z
" transform="scale(0.015625)"/>
       <path id="DejaVuSans-13b1" d="M 2375 4863 
L 2375 4384 
L 1825 4384 
Q 1516 4384 1394 4259 
Q 1275 4134 1275 3809 
L 1275 3500 
L 2853 3500 
L 2853 3744 
Q 2853 4328 3125 4594 
Q 3213 4681 3334 4741 
Q 3578 4863 3988 4863 
L 4531 4863 
L 4531 4384 
L 3981 4384 
Q 3672 4384 3551 4259 
Q 3431 4134 3431 3809 
L 3431 3500 
L 5588 3500 
L 5588 0 
L 5009 0 
L 5009 3053 
L 3431 3053 
L 3431 0 
L 2853 0 
L 2853 3053 
L 1275 3053 
L 1275 0 
L 697 0 
L 697 3053 
L 147 3053 
L 147 3500 
L 697 3500 
L 697 3744 
Q 697 4328 969 4595 
Q 1241 4863 1831 4863 
L 2375 4863 
z
M 5009 4856 
L 5588 4856 
L 5588 4128 
L 5009 4128 
L 5009 4856 
z
" transform="scale(0.015625)"/>
       <path id="DejaVuSans-c" d="M 513 4856 
L 1013 4856 
Q 1481 4119 1714 3412 
Q 1947 2706 1947 2009 
Q 1947 1309 1714 600 
Q 1481 -109 1013 -844 
L 513 -844 
Q 928 -128 1133 580 
Q 1338 1288 1338 2009 
Q 1338 2731 1133 3434 
Q 928 4138 513 4856 
z
" transform="scale(0.015625)"/>
      </defs>
      <use xlink:href="#DejaVuSans-44"/>
      <use xlink:href="#DejaVuSans-55" transform="translate(61.28125 0)"/>
      <use xlink:href="#DejaVuSans-4c" transform="translate(102.390625 0)"/>
      <use xlink:href="#DejaVuSans-57" transform="translate(130.171875 0)"/>
      <use xlink:href="#DejaVuSans-4b" transform="translate(169.375 0)"/>
      <use xlink:href="#DejaVuSans-50" transform="translate(232.75 0)"/>
      <use xlink:href="#DejaVuSans-48" transform="translate(330.15625 0)"/>
      <use xlink:href="#DejaVuSans-57" transform="translate(391.6875 0)"/>
      <use xlink:href="#DejaVuSans-4c" transform="translate(430.890625 0)"/>
      <use xlink:href="#DejaVuSans-46" transform="translate(458.671875 0)"/>
      <use xlink:href="#DejaVuSans-3" transform="translate(513.65625 0)"/>
      <use xlink:href="#DejaVuSans-4c" transform="translate(545.4375 0)"/>
      <use xlink:href="#DejaVuSans-51" transform="translate(573.21875 0)"/>
      <use xlink:href="#DejaVuSans-57" transform="translate(636.59375 0)"/>
      <use xlink:href="#DejaVuSans-48" transform="translate(675.796875 0)"/>
      <use xlink:href="#DejaVuSans-51" transform="translate(737.328125 0)"/>
      <use xlink:href="#DejaVuSans-56" transform="translate(800.703125 0)"/>
      <use xlink:href="#DejaVuSans-4c" transform="translate(852.796875 0)"/>
      <use xlink:href="#DejaVuSans-57" transform="translate(880.578125 0)"/>
      <use xlink:href="#DejaVuSans-5c" transform="translate(919.78125 0)"/>
      <use xlink:href="#DejaVuSans-3" transform="translate(978.96875 0)"/>
      <use xlink:href="#DejaVuSans-b" transform="translate(1010.75 0)"/>
      <use xlink:href="#DejaVuSans-30" transform="translate(1049.765625 0)"/>
      <use xlink:href="#DejaVuSans-24" transform="translate(1136.046875 0)"/>
      <use xlink:href="#DejaVuSans-26" transform="translate(1202.703125 0)"/>
      <use xlink:href="#DejaVuSans-56" transform="translate(1272.53125 0)"/>
      <use xlink:href="#DejaVuSans-3" transform="translate(1324.625 0)"/>
      <use xlink:href="#DejaVuSans-53" transform="translate(1356.40625 0)"/>
      <use xlink:href="#DejaVuSans-48" transform="translate(1419.890625 0)"/>
      <use xlink:href="#DejaVuSans-55" transform="translate(1481.421875 0)"/>
      <use xlink:href="#DejaVuSans-3" transform="translate(1522.53125 0)"/>
      <use xlink:href="#DejaVuSans-45" transform="translate(1554.3125 0)"/>
      <use xlink:href="#DejaVuSans-5c" transform="translate(1617.796875 0)"/>
      <use xlink:href="#DejaVuSans-57" transform="translate(1676.984375 0)"/>
      <use xlink:href="#DejaVuSans-48" transform="translate(1716.1875 0)"/>
      <use xlink:href="#DejaVuSans-3" transform="translate(1777.71875 0)"/>
      <use xlink:href="#DejaVuSans-52" transform="translate(1809.5 0)"/>
      <use xlink:href="#DejaVuSans-49" transform="translate(1870.6875 0)"/>
      <use xlink:href="#DejaVuSans-3" transform="translate(1905.890625 0)"/>
      <use xlink:href="#DejaVuSans-27" transform="translate(1937.671875 0)"/>
      <use xlink:href="#DejaVuSans-35" transform="translate(2014.671875 0)"/>
      <use xlink:href="#DejaVuSans-24" transform="translate(2080.109375 0)"/>
      <use xlink:href="#DejaVuSans-30" transform="translate(2148.515625 0)"/>
      <use xlink:href="#DejaVuSans-3" transform="translate(2234.796875 0)"/>
      <use xlink:href="#DejaVuSans-57" transform="translate(2266.578125 0)"/>
      <use xlink:href="#DejaVuSans-55" transform="translate(2305.78125 0)"/>
      <use xlink:href="#DejaVuSans-44" transform="translate(2346.890625 0)"/>
      <use xlink:href="#DejaVuSans-13b1" transform="translate(2408.171875 0)"/>
      <use xlink:href="#DejaVuSans-46" transform="translate(2504.859375 0)"/>
      <use xlink:href="#DejaVuSans-c" transform="translate(2559.84375 0)"/>
     </g>
    </g>
   </g>
   <g id="matplotlib.axis_2">
    <g id="ytick_1">
     <g id="line2d_33">
      <path d="M 59.962813 321.169857 
L 466.56 321.169857 
" clip-path="url(#p80613d7c30)" style="fill: none; stroke: #b0b0b0; stroke-opacity: 0.3; stroke-width: 0.8; stroke-linecap: square"/>
     </g>
     <g id="line2d_34">
      <defs>
       <path id="m0d814a7c40" d="M 0 0 
L -3.5 0 
" style="stroke: #000000; stroke-width: 0.8"/>
      </defs>
      <g>
       <use xlink:href="#m0d814a7c40" x="59.962813" y="321.169857" style="stroke: #000000; stroke-width: 0.8"/>
      </g>
     </g>
     <g id="text_4">
      <!-- $\mathdefault{10^{-2}}$ -->
      <g transform="translate(27.112813 326.339857) scale(0.11 -0.11)">
       <defs>
        <path id="DejaVuSans-c9c" d="M 678 2272 
L 4684 2272 
L 4684 1741 
L 678 1741 
L 678 2272 
z
" transform="scale(0.015625)"/>
        <path id="DejaVuSans-15" d="M 1228 531 
L 3431 531 
L 3431 0 
L 469 0 
L 469 531 
Q 828 903 1448 1529 
Q 2069 2156 2228 2338 
Q 2531 2678 2651 2914 
Q 2772 3150 2772 3378 
Q 2772 3750 2511 3984 
Q 2250 4219 1831 4219 
Q 1534 4219 1204 4116 
Q 875 4013 500 3803 
L 500 4441 
Q 881 4594 1212 4672 
Q 1544 4750 1819 4750 
Q 2544 4750 2975 4387 
Q 3406 4025 3406 3419 
Q 3406 3131 3298 2873 
Q 3191 2616 2906 2266 
Q 2828 2175 2409 1742 
Q 1991 1309 1228 531 
z
" transform="scale(0.015625)"/>
       </defs>
       <use xlink:href="#DejaVuSans-14" transform="translate(0 0.746875)"/>
       <use xlink:href="#DejaVuSans-13" transform="translate(63.623047 0.746875)"/>
       <use xlink:href="#DejaVuSans-c9c" transform="translate(128.203125 42.046875) scale(0.7)"/>
       <use xlink:href="#DejaVuSans-15" transform="translate(186.855469 42.046875) scale(0.7)"/>
      </g>
     </g>
    </g>
    <g id="ytick_2">
     <g id="line2d_35">
      <path d="M 59.962813 252.428212 
L 466.56 252.428212 
" clip-path="url(#p80613d7c30)" style="fill: none; stroke: #b0b0b0; stroke-opacity: 0.3; stroke-width: 0.8; stroke-linecap: square"/>
     </g>
     <g id="line2d_36">
      <g>
       <use xlink:href="#m0d814a7c40" x="59.962813" y="252.428212" style="stroke: #000000; stroke-width: 0.8"/>
      </g>
     </g>
     <g id="text_5">
      <!-- $\mathdefault{10^{-1}}$ -->
      <g transform="translate(27.112813 257.543212) scale(0.11 -0.11)">
       <use xlink:href="#DejaVuSans-14" transform="translate(0 0.665625)"/>
       <use xlink:href="#DejaVuSans-13" transform="translate(63.623047 0.665625)"/>
       <use xlink:href="#DejaVuSans-c9c" transform="translate(128.203125 41.965625) scale(0.7)"/>
       <use xlink:href="#DejaVuSans-14" transform="translate(186.855469 41.965625) scale(0.7)"/>
      </g>
     </g>
    </g>
    <g id="ytick_3">
     <g id="line2d_37">
      <path d="M 59.962813 183.686566 
L 466.56 183.686566 
" clip-path="url(#p80613d7c30)" style="fill: none; stroke: #b0b0b0; stroke-opacity: 0.3; stroke-width: 0.8; stroke-linecap: square"/>
     </g>
     <g id="line2d_38">
      <g>
       <use xlink:href="#m0d814a7c40" x="59.962813" y="183.686566" style="stroke: #000000; stroke-width: 0.8"/>
      </g>
     </g>
     <g id="text_6">
      <!-- $\mathdefault{10^{0}}$ -->
      <g transform="translate(33.602813 188.856566) scale(0.11 -0.11)">
       <use xlink:href="#DejaVuSans-14" transform="translate(0 0.746875)"/>
       <use xlink:href="#DejaVuSans-13" transform="translate(63.623047 0.746875)"/>
       <use xlink:href="#DejaVuSans-13" transform="translate(128.203125 42.046875) scale(0.7)"/>
      </g>
     </g>
    </g>
    <g id="ytick_4">
     <g id="line2d_39">
      <path d="M 59.962813 114.944921 
L 466.56 114.944921 
" clip-path="url(#p80613d7c30)" style="fill: none; stroke: #b0b0b0; stroke-opacity: 0.3; stroke-width: 0.8; stroke-linecap: square"/>
     </g>
     <g id="line2d_40">
      <g>
       <use xlink:href="#m0d814a7c40" x="59.962813" y="114.944921" style="stroke: #000000; stroke-width: 0.8"/>
      </g>
     </g>
     <g id="text_7">
      <!-- $\mathdefault{10^{1}}$ -->
      <g transform="translate(33.602813 120.059921) scale(0.11 -0.11)">
       <use xlink:href="#DejaVuSans-14" transform="translate(0 0.665625)"/>
       <use xlink:href="#DejaVuSans-13" transform="translate(63.623047 0.665625)"/>
       <use xlink:href="#DejaVuSans-14" transform="translate(128.203125 41.965625) scale(0.7)"/>
      </g>
     </g>
    </g>
    <g id="ytick_5">
     <g id="line2d_41">
      <path d="M 59.962813 46.203275 
L 466.56 46.203275 
" clip-path="url(#p80613d7c30)" style="fill: none; stroke: #b0b0b0; stroke-opacity: 0.3; stroke-width: 0.8; stroke-linecap: square"/>
     </g>
     <g id="line2d_42">
      <g>
       <use xlink:href="#m0d814a7c40" x="59.962813" y="46.203275" style="stroke: #000000; stroke-width: 0.8"/>
      </g>
     </g>
     <g id="text_8">
      <!-- $\mathdefault{10^{2}}$ -->
      <g transform="translate(33.602813 51.373275) scale(0.11 -0.11)">
       <use xlink:href="#DejaVuSans-14" transform="translate(0 0.746875)"/>
       <use xlink:href="#DejaVuSans-13" transform="translate(63.623047 0.746875)"/>
       <use xlink:href="#DejaVuSans-15" transform="translate(128.203125 42.046875) scale(0.7)"/>
      </g>
     </g>
    </g>
    <g id="ytick_6">
     <g id="line2d_43">
      <path d="M 59.962813 341.863155 
L 466.56 341.863155 
" clip-path="url(#p80613d7c30)" style="fill: none; stroke: #b0b0b0; stroke-opacity: 0.3; stroke-width: 0.8; stroke-linecap: square"/>
     </g>
     <g id="line2d_44">
      <defs>
       <path id="m043b1a4978" d="M 0 0 
L -2 0 
" style="stroke: #000000; stroke-width: 0.6"/>
      </defs>
      <g>
       <use xlink:href="#m043b1a4978" x="59.962813" y="341.863155" style="stroke: #000000; stroke-width: 0.6"/>
      </g>
     </g>
    </g>
    <g id="ytick_7">
     <g id="line2d_45">
      <path d="M 59.962813 336.420106 
L 466.56 336.420106 
" clip-path="url(#p80613d7c30)" style="fill: none; stroke: #b0b0b0; stroke-opacity: 0.3; stroke-width: 0.8; stroke-linecap: square"/>
     </g>
     <g id="line2d_46">
      <g>
       <use xlink:href="#m043b1a4978" x="59.962813" y="336.420106" style="stroke: #000000; stroke-width: 0.6"/>
      </g>
     </g>
    </g>
    <g id="ytick_8">
     <g id="line2d_47">
      <path d="M 59.962813 331.818073 
L 466.56 331.818073 
" clip-path="url(#p80613d7c30)" style="fill: none; stroke: #b0b0b0; stroke-opacity: 0.3; stroke-width: 0.8; stroke-linecap: square"/>
     </g>
     <g id="line2d_48">
      <g>
       <use xlink:href="#m043b1a4978" x="59.962813" y="331.818073" style="stroke: #000000; stroke-width: 0.6"/>
      </g>
     </g>
    </g>
    <g id="ytick_9">
     <g id="line2d_49">
      <path d="M 59.962813 327.831611 
L 466.56 327.831611 
" clip-path="url(#p80613d7c30)" style="fill: none; stroke: #b0b0b0; stroke-opacity: 0.3; stroke-width: 0.8; stroke-linecap: square"/>
     </g>
     <g id="line2d_50">
      <g>
       <use xlink:href="#m043b1a4978" x="59.962813" y="327.831611" style="stroke: #000000; stroke-width: 0.6"/>
      </g>
     </g>
    </g>
    <g id="ytick_10">
     <g id="line2d_51">
      <path d="M 59.962813 324.315303 
L 466.56 324.315303 
" clip-path="url(#p80613d7c30)" style="fill: none; stroke: #b0b0b0; stroke-opacity: 0.3; stroke-width: 0.8; stroke-linecap: square"/>
     </g>
     <g id="line2d_52">
      <g>
       <use xlink:href="#m043b1a4978" x="59.962813" y="324.315303" style="stroke: #000000; stroke-width: 0.6"/>
      </g>
     </g>
    </g>
    <g id="ytick_11">
     <g id="line2d_53">
      <path d="M 59.962813 300.47656 
L 466.56 300.47656 
" clip-path="url(#p80613d7c30)" style="fill: none; stroke: #b0b0b0; stroke-opacity: 0.3; stroke-width: 0.8; stroke-linecap: square"/>
     </g>
     <g id="line2d_54">
      <g>
       <use xlink:href="#m043b1a4978" x="59.962813" y="300.47656" style="stroke: #000000; stroke-width: 0.6"/>
      </g>
     </g>
    </g>
    <g id="ytick_12">
     <g id="line2d_55">
      <path d="M 59.962813 288.371757 
L 466.56 288.371757 
" clip-path="url(#p80613d7c30)" style="fill: none; stroke: #b0b0b0; stroke-opacity: 0.3; stroke-width: 0.8; stroke-linecap: square"/>
     </g>
     <g id="line2d_56">
      <g>
       <use xlink:href="#m043b1a4978" x="59.962813" y="288.371757" style="stroke: #000000; stroke-width: 0.6"/>
      </g>
     </g>
    </g>
    <g id="ytick_13">
     <g id="line2d_57">
      <path d="M 59.962813 279.783263 
L 466.56 279.783263 
" clip-path="url(#p80613d7c30)" style="fill: none; stroke: #b0b0b0; stroke-opacity: 0.3; stroke-width: 0.8; stroke-linecap: square"/>
     </g>
     <g id="line2d_58">
      <g>
       <use xlink:href="#m043b1a4978" x="59.962813" y="279.783263" style="stroke: #000000; stroke-width: 0.6"/>
      </g>
     </g>
    </g>
    <g id="ytick_14">
     <g id="line2d_59">
      <path d="M 59.962813 273.121509 
L 466.56 273.121509 
" clip-path="url(#p80613d7c30)" style="fill: none; stroke: #b0b0b0; stroke-opacity: 0.3; stroke-width: 0.8; stroke-linecap: square"/>
     </g>
     <g id="line2d_60">
      <g>
       <use xlink:href="#m043b1a4978" x="59.962813" y="273.121509" style="stroke: #000000; stroke-width: 0.6"/>
      </g>
     </g>
    </g>
    <g id="ytick_15">
     <g id="line2d_61">
      <path d="M 59.962813 267.67846 
L 466.56 267.67846 
" clip-path="url(#p80613d7c30)" style="fill: none; stroke: #b0b0b0; stroke-opacity: 0.3; stroke-width: 0.8; stroke-linecap: square"/>
     </g>
     <g id="line2d_62">
      <g>
       <use xlink:href="#m043b1a4978" x="59.962813" y="267.67846" style="stroke: #000000; stroke-width: 0.6"/>
      </g>
     </g>
    </g>
    <g id="ytick_16">
     <g id="line2d_63">
      <path d="M 59.962813 263.076428 
L 466.56 263.076428 
" clip-path="url(#p80613d7c30)" style="fill: none; stroke: #b0b0b0; stroke-opacity: 0.3; stroke-width: 0.8; stroke-linecap: square"/>
     </g>
     <g id="line2d_64">
      <g>
       <use xlink:href="#m043b1a4978" x="59.962813" y="263.076428" style="stroke: #000000; stroke-width: 0.6"/>
      </g>
     </g>
    </g>
    <g id="ytick_17">
     <g id="line2d_65">
      <path d="M 59.962813 259.089966 
L 466.56 259.089966 
" clip-path="url(#p80613d7c30)" style="fill: none; stroke: #b0b0b0; stroke-opacity: 0.3; stroke-width: 0.8; stroke-linecap: square"/>
     </g>
     <g id="line2d_66">
      <g>
       <use xlink:href="#m043b1a4978" x="59.962813" y="259.089966" style="stroke: #000000; stroke-width: 0.6"/>
      </g>
     </g>
    </g>
    <g id="ytick_18">
     <g id="line2d_67">
      <path d="M 59.962813 255.573657 
L 466.56 255.573657 
" clip-path="url(#p80613d7c30)" style="fill: none; stroke: #b0b0b0; stroke-opacity: 0.3; stroke-width: 0.8; stroke-linecap: square"/>
     </g>
     <g id="line2d_68">
      <g>
       <use xlink:href="#m043b1a4978" x="59.962813" y="255.573657" style="stroke: #000000; stroke-width: 0.6"/>
      </g>
     </g>
    </g>
    <g id="ytick_19">
     <g id="line2d_69">
      <path d="M 59.962813 231.734915 
L 466.56 231.734915 
" clip-path="url(#p80613d7c30)" style="fill: none; stroke: #b0b0b0; stroke-opacity: 0.3; stroke-width: 0.8; stroke-linecap: square"/>
     </g>
     <g id="line2d_70">
      <g>
       <use xlink:href="#m043b1a4978" x="59.962813" y="231.734915" style="stroke: #000000; stroke-width: 0.6"/>
      </g>
     </g>
    </g>
    <g id="ytick_20">
     <g id="line2d_71">
      <path d="M 59.962813 219.630112 
L 466.56 219.630112 
" clip-path="url(#p80613d7c30)" style="fill: none; stroke: #b0b0b0; stroke-opacity: 0.3; stroke-width: 0.8; stroke-linecap: square"/>
     </g>
     <g id="line2d_72">
      <g>
       <use xlink:href="#m043b1a4978" x="59.962813" y="219.630112" style="stroke: #000000; stroke-width: 0.6"/>
      </g>
     </g>
    </g>
    <g id="ytick_21">
     <g id="line2d_73">
      <path d="M 59.962813 211.041617 
L 466.56 211.041617 
" clip-path="url(#p80613d7c30)" style="fill: none; stroke: #b0b0b0; stroke-opacity: 0.3; stroke-width: 0.8; stroke-linecap: square"/>
     </g>
     <g id="line2d_74">
      <g>
       <use xlink:href="#m043b1a4978" x="59.962813" y="211.041617" style="stroke: #000000; stroke-width: 0.6"/>
      </g>
     </g>
    </g>
    <g id="ytick_22">
     <g id="line2d_75">
      <path d="M 59.962813 204.379864 
L 466.56 204.379864 
" clip-path="url(#p80613d7c30)" style="fill: none; stroke: #b0b0b0; stroke-opacity: 0.3; stroke-width: 0.8; stroke-linecap: square"/>
     </g>
     <g id="line2d_76">
      <g>
       <use xlink:href="#m043b1a4978" x="59.962813" y="204.379864" style="stroke: #000000; stroke-width: 0.6"/>
      </g>
     </g>
    </g>
    <g id="ytick_23">
     <g id="line2d_77">
      <path d="M 59.962813 198.936815 
L 466.56 198.936815 
" clip-path="url(#p80613d7c30)" style="fill: none; stroke: #b0b0b0; stroke-opacity: 0.3; stroke-width: 0.8; stroke-linecap: square"/>
     </g>
     <g id="line2d_78">
      <g>
       <use xlink:href="#m043b1a4978" x="59.962813" y="198.936815" style="stroke: #000000; stroke-width: 0.6"/>
      </g>
     </g>
    </g>
    <g id="ytick_24">
     <g id="line2d_79">
      <path d="M 59.962813 194.334782 
L 466.56 194.334782 
" clip-path="url(#p80613d7c30)" style="fill: none; stroke: #b0b0b0; stroke-opacity: 0.3; stroke-width: 0.8; stroke-linecap: square"/>
     </g>
     <g id="line2d_80">
      <g>
       <use xlink:href="#m043b1a4978" x="59.962813" y="194.334782" style="stroke: #000000; stroke-width: 0.6"/>
      </g>
     </g>
    </g>
    <g id="ytick_25">
     <g id="line2d_81">
      <path d="M 59.962813 190.34832 
L 466.56 190.34832 
" clip-path="url(#p80613d7c30)" style="fill: none; stroke: #b0b0b0; stroke-opacity: 0.3; stroke-width: 0.8; stroke-linecap: square"/>
     </g>
     <g id="line2d_82">
      <g>
       <use xlink:href="#m043b1a4978" x="59.962813" y="190.34832" style="stroke: #000000; stroke-width: 0.6"/>
      </g>
     </g>
    </g>
    <g id="ytick_26">
     <g id="line2d_83">
      <path d="M 59.962813 186.832012 
L 466.56 186.832012 
" clip-path="url(#p80613d7c30)" style="fill: none; stroke: #b0b0b0; stroke-opacity: 0.3; stroke-width: 0.8; stroke-linecap: square"/>
     </g>
     <g id="line2d_84">
      <g>
       <use xlink:href="#m043b1a4978" x="59.962813" y="186.832012" style="stroke: #000000; stroke-width: 0.6"/>
      </g>
     </g>
    </g>
    <g id="ytick_27">
     <g id="line2d_85">
      <path d="M 59.962813 162.993269 
L 466.56 162.993269 
" clip-path="url(#p80613d7c30)" style="fill: none; stroke: #b0b0b0; stroke-opacity: 0.3; stroke-width: 0.8; stroke-linecap: square"/>
     </g>
     <g id="line2d_86">
      <g>
       <use xlink:href="#m043b1a4978" x="59.962813" y="162.993269" style="stroke: #000000; stroke-width: 0.6"/>
      </g>
     </g>
    </g>
    <g id="ytick_28">
     <g id="line2d_87">
      <path d="M 59.962813 150.888466 
L 466.56 150.888466 
" clip-path="url(#p80613d7c30)" style="fill: none; stroke: #b0b0b0; stroke-opacity: 0.3; stroke-width: 0.8; stroke-linecap: square"/>
     </g>
     <g id="line2d_88">
      <g>
       <use xlink:href="#m043b1a4978" x="59.962813" y="150.888466" style="stroke: #000000; stroke-width: 0.6"/>
      </g>
     </g>
    </g>
    <g id="ytick_29">
     <g id="line2d_89">
      <path d="M 59.962813 142.299972 
L 466.56 142.299972 
" clip-path="url(#p80613d7c30)" style="fill: none; stroke: #b0b0b0; stroke-opacity: 0.3; stroke-width: 0.8; stroke-linecap: square"/>
     </g>
     <g id="line2d_90">
      <g>
       <use xlink:href="#m043b1a4978" x="59.962813" y="142.299972" style="stroke: #000000; stroke-width: 0.6"/>
      </g>
     </g>
    </g>
    <g id="ytick_30">
     <g id="line2d_91">
      <path d="M 59.962813 135.638218 
L 466.56 135.638218 
" clip-path="url(#p80613d7c30)" style="fill: none; stroke: #b0b0b0; stroke-opacity: 0.3; stroke-width: 0.8; stroke-linecap: square"/>
     </g>
     <g id="line2d_92">
      <g>
       <use xlink:href="#m043b1a4978" x="59.962813" y="135.638218" style="stroke: #000000; stroke-width: 0.6"/>
      </g>
     </g>
    </g>
    <g id="ytick_31">
     <g id="line2d_93">
      <path d="M 59.962813 130.195169 
L 466.56 130.195169 
" clip-path="url(#p80613d7c30)" style="fill: none; stroke: #b0b0b0; stroke-opacity: 0.3; stroke-width: 0.8; stroke-linecap: square"/>
     </g>
     <g id="line2d_94">
      <g>
       <use xlink:href="#m043b1a4978" x="59.962813" y="130.195169" style="stroke: #000000; stroke-width: 0.6"/>
      </g>
     </g>
    </g>
    <g id="ytick_32">
     <g id="line2d_95">
      <path d="M 59.962813 125.593137 
L 466.56 125.593137 
" clip-path="url(#p80613d7c30)" style="fill: none; stroke: #b0b0b0; stroke-opacity: 0.3; stroke-width: 0.8; stroke-linecap: square"/>
     </g>
     <g id="line2d_96">
      <g>
       <use xlink:href="#m043b1a4978" x="59.962813" y="125.593137" style="stroke: #000000; stroke-width: 0.6"/>
      </g>
     </g>
    </g>
    <g id="ytick_33">
     <g id="line2d_97">
      <path d="M 59.962813 121.606675 
L 466.56 121.606675 
" clip-path="url(#p80613d7c30)" style="fill: none; stroke: #b0b0b0; stroke-opacity: 0.3; stroke-width: 0.8; stroke-linecap: square"/>
     </g>
     <g id="line2d_98">
      <g>
       <use xlink:href="#m043b1a4978" x="59.962813" y="121.606675" style="stroke: #000000; stroke-width: 0.6"/>
      </g>
     </g>
    </g>
    <g id="ytick_34">
     <g id="line2d_99">
      <path d="M 59.962813 118.090366 
L 466.56 118.090366 
" clip-path="url(#p80613d7c30)" style="fill: none; stroke: #b0b0b0; stroke-opacity: 0.3; stroke-width: 0.8; stroke-linecap: square"/>
     </g>
     <g id="line2d_100">
      <g>
       <use xlink:href="#m043b1a4978" x="59.962813" y="118.090366" style="stroke: #000000; stroke-width: 0.6"/>
      </g>
     </g>
    </g>
    <g id="ytick_35">
     <g id="line2d_101">
      <path d="M 59.962813 94.251624 
L 466.56 94.251624 
" clip-path="url(#p80613d7c30)" style="fill: none; stroke: #b0b0b0; stroke-opacity: 0.3; stroke-width: 0.8; stroke-linecap: square"/>
     </g>
     <g id="line2d_102">
      <g>
       <use xlink:href="#m043b1a4978" x="59.962813" y="94.251624" style="stroke: #000000; stroke-width: 0.6"/>
      </g>
     </g>
    </g>
    <g id="ytick_36">
     <g id="line2d_103">
      <path d="M 59.962813 82.146821 
L 466.56 82.146821 
" clip-path="url(#p80613d7c30)" style="fill: none; stroke: #b0b0b0; stroke-opacity: 0.3; stroke-width: 0.8; stroke-linecap: square"/>
     </g>
     <g id="line2d_104">
      <g>
       <use xlink:href="#m043b1a4978" x="59.962813" y="82.146821" style="stroke: #000000; stroke-width: 0.6"/>
      </g>
     </g>
    </g>
    <g id="ytick_37">
     <g id="line2d_105">
      <path d="M 59.962813 73.558326 
L 466.56 73.558326 
" clip-path="url(#p80613d7c30)" style="fill: none; stroke: #b0b0b0; stroke-opacity: 0.3; stroke-width: 0.8; stroke-linecap: square"/>
     </g>
     <g id="line2d_106">
      <g>
       <use xlink:href="#m043b1a4978" x="59.962813" y="73.558326" style="stroke: #000000; stroke-width: 0.6"/>
      </g>
     </g>
    </g>
    <g id="ytick_38">
     <g id="line2d_107">
      <path d="M 59.962813 66.896573 
L 466.56 66.896573 
" clip-path="url(#p80613d7c30)" style="fill: none; stroke: #b0b0b0; stroke-opacity: 0.3; stroke-width: 0.8; stroke-linecap: square"/>
     </g>
     <g id="line2d_108">
      <g>
       <use xlink:href="#m043b1a4978" x="59.962813" y="66.896573" style="stroke: #000000; stroke-width: 0.6"/>
      </g>
     </g>
    </g>
    <g id="ytick_39">
     <g id="line2d_109">
      <path d="M 59.962813 61.453524 
L 466.56 61.453524 
" clip-path="url(#p80613d7c30)" style="fill: none; stroke: #b0b0b0; stroke-opacity: 0.3; stroke-width: 0.8; stroke-linecap: square"/>
     </g>
     <g id="line2d_110">
      <g>
       <use xlink:href="#m043b1a4978" x="59.962813" y="61.453524" style="stroke: #000000; stroke-width: 0.6"/>
      </g>
     </g>
    </g>
    <g id="ytick_40">
     <g id="line2d_111">
      <path d="M 59.962813 56.851491 
L 466.56 56.851491 
" clip-path="url(#p80613d7c30)" style="fill: none; stroke: #b0b0b0; stroke-opacity: 0.3; stroke-width: 0.8; stroke-linecap: square"/>
     </g>
     <g id="line2d_112">
      <g>
       <use xlink:href="#m043b1a4978" x="59.962813" y="56.851491" style="stroke: #000000; stroke-width: 0.6"/>
      </g>
     </g>
    </g>
    <g id="ytick_41">
     <g id="line2d_113">
      <path d="M 59.962813 52.865029 
L 466.56 52.865029 
" clip-path="url(#p80613d7c30)" style="fill: none; stroke: #b0b0b0; stroke-opacity: 0.3; stroke-width: 0.8; stroke-linecap: square"/>
     </g>
     <g id="line2d_114">
      <g>
       <use xlink:href="#m043b1a4978" x="59.962813" y="52.865029" style="stroke: #000000; stroke-width: 0.6"/>
      </g>
     </g>
    </g>
    <g id="ytick_42">
     <g id="line2d_115">
      <path d="M 59.962813 49.348721 
L 466.56 49.348721 
" clip-path="url(#p80613d7c30)" style="fill: none; stroke: #b0b0b0; stroke-opacity: 0.3; stroke-width: 0.8; stroke-linecap: square"/>
     </g>
     <g id="line2d_116">
      <g>
       <use xlink:href="#m043b1a4978" x="59.962813" y="49.348721" style="stroke: #000000; stroke-width: 0.6"/>
      </g>
     </g>
    </g>
    <g id="text_9">
     <!-- throughput (Mpix/s) -->
     <g transform="translate(20.23 247.453477) rotate(-90) scale(0.12 -0.12)">
      <defs>
       <path id="DejaVuSans-58" d="M 544 1381 
L 544 3500 
L 1119 3500 
L 1119 1403 
Q 1119 906 1312 657 
Q 1506 409 1894 409 
Q 2359 409 2629 706 
Q 2900 1003 2900 1516 
L 2900 3500 
L 3475 3500 
L 3475 0 
L 2900 0 
L 2900 538 
Q 2691 219 2414 64 
Q 2138 -91 1772 -91 
Q 1169 -91 856 284 
Q 544 659 544 1381 
z
M 1991 3584 
L 1991 3584 
z
" transform="scale(0.015625)"/>
       <path id="DejaVuSans-4a" d="M 2906 1791 
Q 2906 2416 2648 2759 
Q 2391 3103 1925 3103 
Q 1463 3103 1205 2759 
Q 947 2416 947 1791 
Q 947 1169 1205 825 
Q 1463 481 1925 481 
Q 2391 481 2648 825 
Q 2906 1169 2906 1791 
z
M 3481 434 
Q 3481 -459 3084 -895 
Q 2688 -1331 1869 -1331 
Q 1566 -1331 1297 -1286 
Q 1028 -1241 775 -1147 
L 775 -588 
Q 1028 -725 1275 -790 
Q 1522 -856 1778 -856 
Q 2344 -856 2625 -561 
Q 2906 -266 2906 331 
L 2906 616 
Q 2728 306 2450 153 
Q 2172 0 1784 0 
Q 1141 0 747 490 
Q 353 981 353 1791 
Q 353 2603 747 3093 
Q 1141 3584 1784 3584 
Q 2172 3584 2450 3431 
Q 2728 3278 2906 2969 
L 2906 3500 
L 3481 3500 
L 3481 434 
z
" transform="scale(0.015625)"/>
       <path id="DejaVuSans-5b" d="M 3513 3500 
L 2247 1797 
L 3578 0 
L 2900 0 
L 1881 1375 
L 863 0 
L 184 0 
L 1544 1831 
L 300 3500 
L 978 3500 
L 1906 2253 
L 2834 3500 
L 3513 3500 
z
" transform="scale(0.015625)"/>
       <path id="DejaVuSans-12" d="M 1625 4666 
L 2156 4666 
L 531 -594 
L 0 -594 
L 1625 4666 
z
" transform="scale(0.015625)"/>
      </defs>
      <use xlink:href="#DejaVuSans-57"/>
      <use xlink:href="#DejaVuSans-4b" transform="translate(39.203125 0)"/>
      <use xlink:href="#DejaVuSans-55" transform="translate(102.578125 0)"/>
      <use xlink:href="#DejaVuSans-52" transform="translate(141.484375 0)"/>
      <use xlink:href="#DejaVuSans-58" transform="translate(202.671875 0)"/>
      <use xlink:href="#DejaVuSans-4a" transform="translate(266.046875 0)"/>
      <use xlink:href="#DejaVuSans-4b" transform="translate(329.53125 0)"/>
      <use xlink:href="#DejaVuSans-53" transform="translate(392.90625 0)"/>
      <use xlink:href="#DejaVuSans-58" transform="translate(456.390625 0)"/>
      <use xlink:href="#DejaVuSans-57" transform="translate(519.765625 0)"/>
      <use xlink:href="#DejaVuSans-3" transform="translate(558.96875 0)"/>
      <use xlink:href="#DejaVuSans-b" transform="translate(590.75 0)"/>
      <use xlink:href="#DejaVuSans-30" transform="translate(629.765625 0)"/>
      <use xlink:href="#DejaVuSans-53" transform="translate(716.046875 0)"/>
      <use xlink:href="#DejaVuSans-4c" transform="translate(779.53125 0)"/>
      <use xlink:href="#DejaVuSans-5b" transform="translate(807.3125 0)"/>
      <use xlink:href="#DejaVuSans-12" transform="translate(866.5 0)"/>
      <use xlink:href="#DejaVuSans-56" transform="translate(900.1875 0)"/>
      <use xlink:href="#DejaVuSans-c" transform="translate(952.28125 0)"/>
     </g>
    </g>
   </g>
   <g id="line2d_117">
    <path d="M 59.962813 142.380237 
L 349.612314 60.497396 
L 350.972171 60.234819 
L 466.56 60.234819 
L 466.56 60.234819 
" clip-path="url(#p80613d7c30)" style="fill: none; stroke: #000000; stroke-width: 2.5; stroke-linecap: square"/>
   </g>
   <g id="line2d_118">
    <path d="M 59.962813 60.234819 
L 466.56 60.234819 
L 466.56 60.234819 
" clip-path="url(#p80613d7c30)" style="fill: none; stroke-dasharray: 4.44,1.92; stroke-dashoffset: 0; stroke: #808080; stroke-opacity: 0.7; stroke-width: 1.2"/>
   </g>
   <g id="line2d_119">
    <path d="M 59.962813 142.380237 
L 466.56 27.436719 
L 466.56 27.436719 
" clip-path="url(#p80613d7c30)" style="fill: none; stroke-dasharray: 1.2,1.98; stroke-dashoffset: 0; stroke: #808080; stroke-opacity: 0.7; stroke-width: 1.2"/>
   </g>
   <g id="line2d_120">
    <path d="M 350.541146 348.514609 
L 350.541146 27.436719 
" clip-path="url(#p80613d7c30)" style="fill: none; stroke: #808080; stroke-opacity: 0.5; stroke-width: 0.8; stroke-linecap: square"/>
   </g>
   <g id="patch_5">
    <path d="M 59.962813 348.514609 
L 59.962813 27.436719 
" style="fill: none; stroke: #000000; stroke-width: 0.8; stroke-linejoin: miter; stroke-linecap: square"/>
   </g>
   <g id="patch_6">
    <path d="M 466.56 348.514609 
L 466.56 27.436719 
" style="fill: none; stroke: #000000; stroke-width: 0.8; stroke-linejoin: miter; stroke-linecap: square"/>
   </g>
   <g id="patch_7">
    <path d="M 59.962813 348.514609 
L 466.56 348.514609 
" style="fill: none; stroke: #000000; stroke-width: 0.8; stroke-linejoin: miter; stroke-linecap: square"/>
   </g>
   <g id="patch_8">
    <path d="M 59.962813 27.436719 
L 466.56 27.436719 
" style="fill: none; stroke: #000000; stroke-width: 0.8; stroke-linejoin: miter; stroke-linecap: square"/>
   </g>
   <g id="text_10">
    <!-- ridge -->
    <g style="fill: #808080" transform="translate(335.097709 52.402165) scale(0.12 -0.12)">
     <defs>
      <path id="DejaVuSans-47" d="M 2906 2969 
L 2906 4863 
L 3481 4863 
L 3481 0 
L 2906 0 
L 2906 525 
Q 2725 213 2448 61 
Q 2172 -91 1784 -91 
Q 1150 -91 751 415 
Q 353 922 353 1747 
Q 353 2572 751 3078 
Q 1150 3584 1784 3584 
Q 2172 3584 2448 3432 
Q 2725 3281 2906 2969 
z
M 947 1747 
Q 947 1113 1208 752 
Q 1469 391 1925 391 
Q 2381 391 2643 752 
Q 2906 1113 2906 1747 
Q 2906 2381 2643 2742 
Q 2381 3103 1925 3103 
Q 1469 3103 1208 2742 
Q 947 2381 947 1747 
z
" transform="scale(0.015625)"/>
     </defs>
     <use xlink:href="#DejaVuSans-55"/>
     <use xlink:href="#DejaVuSans-4c" transform="translate(41.109375 0)"/>
     <use xlink:href="#DejaVuSans-47" transform="translate(68.890625 0)"/>
     <use xlink:href="#DejaVuSans-4a" transform="translate(132.375 0)"/>
     <use xlink:href="#DejaVuSans-48" transform="translate(195.859375 0)"/>
    </g>
   </g>
   <g id="text_11">
    <!-- memory-bound -->
    <g style="fill: #23538f" transform="translate(166.769245 41.330393) scale(0.09 -0.09)">
     <defs>
      <path id="DejaVuSans-Bold-50" d="M 3781 2919 
Q 3994 3244 4286 3414 
Q 4578 3584 4928 3584 
Q 5531 3584 5847 3212 
Q 6163 2841 6163 2131 
L 6163 0 
L 5038 0 
L 5038 1825 
Q 5041 1866 5042 1909 
Q 5044 1953 5044 2034 
Q 5044 2406 4934 2573 
Q 4825 2741 4581 2741 
Q 4263 2741 4089 2478 
Q 3916 2216 3909 1719 
L 3909 0 
L 2784 0 
L 2784 1825 
Q 2784 2406 2684 2573 
Q 2584 2741 2328 2741 
Q 2006 2741 1831 2477 
Q 1656 2213 1656 1722 
L 1656 0 
L 531 0 
L 531 3500 
L 1656 3500 
L 1656 2988 
Q 1863 3284 2130 3434 
Q 2397 3584 2719 3584 
Q 3081 3584 3359 3409 
Q 3638 3234 3781 2919 
z
" transform="scale(0.015625)"/>
      <path id="DejaVuSans-Bold-48" d="M 4031 1759 
L 4031 1441 
L 1416 1441 
Q 1456 1047 1700 850 
Q 1944 653 2381 653 
Q 2734 653 3104 758 
Q 3475 863 3866 1075 
L 3866 213 
Q 3469 63 3072 -14 
Q 2675 -91 2278 -91 
Q 1328 -91 801 392 
Q 275 875 275 1747 
Q 275 2603 792 3093 
Q 1309 3584 2216 3584 
Q 3041 3584 3536 3087 
Q 4031 2591 4031 1759 
z
M 2881 2131 
Q 2881 2450 2695 2645 
Q 2509 2841 2209 2841 
Q 1884 2841 1681 2658 
Q 1478 2475 1428 2131 
L 2881 2131 
z
" transform="scale(0.015625)"/>
      <path id="DejaVuSans-Bold-52" d="M 2203 2784 
Q 1831 2784 1636 2517 
Q 1441 2250 1441 1747 
Q 1441 1244 1636 976 
Q 1831 709 2203 709 
Q 2569 709 2762 976 
Q 2956 1244 2956 1747 
Q 2956 2250 2762 2517 
Q 2569 2784 2203 2784 
z
M 2203 3584 
Q 3106 3584 3614 3096 
Q 4122 2609 4122 1747 
Q 4122 884 3614 396 
Q 3106 -91 2203 -91 
Q 1297 -91 786 396 
Q 275 884 275 1747 
Q 275 2609 786 3096 
Q 1297 3584 2203 3584 
z
" transform="scale(0.015625)"/>
      <path id="DejaVuSans-Bold-55" d="M 3138 2547 
Q 2991 2616 2845 2648 
Q 2700 2681 2553 2681 
Q 2122 2681 1889 2404 
Q 1656 2128 1656 1613 
L 1656 0 
L 538 0 
L 538 3500 
L 1656 3500 
L 1656 2925 
Q 1872 3269 2151 3426 
Q 2431 3584 2822 3584 
Q 2878 3584 2943 3579 
Q 3009 3575 3134 3559 
L 3138 2547 
z
" transform="scale(0.015625)"/>
      <path id="DejaVuSans-Bold-5c" d="M 78 3500 
L 1197 3500 
L 2138 1125 
L 2938 3500 
L 4056 3500 
L 2584 -331 
Q 2363 -916 2067 -1148 
Q 1772 -1381 1288 -1381 
L 641 -1381 
L 641 -647 
L 991 -647 
Q 1275 -647 1404 -556 
Q 1534 -466 1606 -231 
L 1638 -134 
L 78 3500 
z
" transform="scale(0.015625)"/>
      <path id="DejaVuSans-Bold-10" d="M 347 2297 
L 2309 2297 
L 2309 1388 
L 347 1388 
L 347 2297 
z
" transform="scale(0.015625)"/>
      <path id="DejaVuSans-Bold-45" d="M 2400 722 
Q 2759 722 2948 984 
Q 3138 1247 3138 1747 
Q 3138 2247 2948 2509 
Q 2759 2772 2400 2772 
Q 2041 2772 1848 2508 
Q 1656 2244 1656 1747 
Q 1656 1250 1848 986 
Q 2041 722 2400 722 
z
M 1656 2988 
Q 1888 3294 2169 3439 
Q 2450 3584 2816 3584 
Q 3463 3584 3878 3070 
Q 4294 2556 4294 1747 
Q 4294 938 3878 423 
Q 3463 -91 2816 -91 
Q 2450 -91 2169 54 
Q 1888 200 1656 506 
L 1656 0 
L 538 0 
L 538 4863 
L 1656 4863 
L 1656 2988 
z
" transform="scale(0.015625)"/>
      <path id="DejaVuSans-Bold-58" d="M 500 1363 
L 500 3500 
L 1625 3500 
L 1625 3150 
Q 1625 2866 1622 2436 
Q 1619 2006 1619 1863 
Q 1619 1441 1641 1255 
Q 1663 1069 1716 984 
Q 1784 875 1895 815 
Q 2006 756 2150 756 
Q 2500 756 2700 1025 
Q 2900 1294 2900 1772 
L 2900 3500 
L 4019 3500 
L 4019 0 
L 2900 0 
L 2900 506 
Q 2647 200 2364 54 
Q 2081 -91 1741 -91 
Q 1134 -91 817 281 
Q 500 653 500 1363 
z
" transform="scale(0.015625)"/>
      <path id="DejaVuSans-Bold-51" d="M 4056 2131 
L 4056 0 
L 2931 0 
L 2931 347 
L 2931 1631 
Q 2931 2084 2911 2256 
Q 2891 2428 2841 2509 
Q 2775 2619 2662 2680 
Q 2550 2741 2406 2741 
Q 2056 2741 1856 2470 
Q 1656 2200 1656 1722 
L 1656 0 
L 538 0 
L 538 3500 
L 1656 3500 
L 1656 2988 
Q 1909 3294 2193 3439 
Q 2478 3584 2822 3584 
Q 3428 3584 3742 3212 
Q 4056 2841 4056 2131 
z
" transform="scale(0.015625)"/>
      <path id="DejaVuSans-Bold-47" d="M 2919 2988 
L 2919 4863 
L 4044 4863 
L 4044 0 
L 2919 0 
L 2919 506 
Q 2688 197 2409 53 
Q 2131 -91 1766 -91 
Q 1119 -91 703 423 
Q 288 938 288 1747 
Q 288 2556 703 3070 
Q 1119 3584 1766 3584 
Q 2128 3584 2408 3439 
Q 2688 3294 2919 2988 
z
M 2181 722 
Q 2541 722 2730 984 
Q 2919 1247 2919 1747 
Q 2919 2247 2730 2509 
Q 2541 2772 2181 2772 
Q 1825 2772 1636 2509 
Q 1447 2247 1447 1747 
Q 1447 1247 1636 984 
Q 1825 722 2181 722 
z
" transform="scale(0.015625)"/>
     </defs>
     <use xlink:href="#DejaVuSans-Bold-50"/>
     <use xlink:href="#DejaVuSans-Bold-48" transform="translate(104.203125 0)"/>
     <use xlink:href="#DejaVuSans-Bold-50" transform="translate(172.03125 0)"/>
     <use xlink:href="#DejaVuSans-Bold-52" transform="translate(276.234375 0)"/>
     <use xlink:href="#DejaVuSans-Bold-55" transform="translate(344.9375 0)"/>
     <use xlink:href="#DejaVuSans-Bold-5c" transform="translate(394.25 0)"/>
     <use xlink:href="#DejaVuSans-Bold-10" transform="translate(459.4375 0)"/>
     <use xlink:href="#DejaVuSans-Bold-45" transform="translate(500.9375 0)"/>
     <use xlink:href="#DejaVuSans-Bold-52" transform="translate(572.515625 0)"/>
     <use xlink:href="#DejaVuSans-Bold-58" transform="translate(641.21875 0)"/>
     <use xlink:href="#DejaVuSans-Bold-51" transform="translate(712.40625 0)"/>
     <use xlink:href="#DejaVuSans-Bold-47" transform="translate(783.59375 0)"/>
    </g>
    <!-- (on the slope) -->
    <g style="fill: #23538f" transform="translate(169.718151 52.132854) scale(0.09 -0.09)">
     <defs>
      <path id="DejaVuSans-Bold-b" d="M 2413 -844 
L 1484 -844 
Q 1006 -72 778 623 
Q 550 1319 550 2003 
Q 550 2688 779 3389 
Q 1009 4091 1484 4856 
L 2413 4856 
Q 2013 4116 1813 3408 
Q 1613 2700 1613 2009 
Q 1613 1319 1811 609 
Q 2009 -100 2413 -844 
z
" transform="scale(0.015625)"/>
      <path id="DejaVuSans-Bold-3" transform="scale(0.015625)"/>
      <path id="DejaVuSans-Bold-57" d="M 1759 4494 
L 1759 3500 
L 2913 3500 
L 2913 2700 
L 1759 2700 
L 1759 1216 
Q 1759 972 1856 886 
Q 1953 800 2241 800 
L 2816 800 
L 2816 0 
L 1856 0 
Q 1194 0 917 276 
Q 641 553 641 1216 
L 641 2700 
L 84 2700 
L 84 3500 
L 641 3500 
L 641 4494 
L 1759 4494 
z
" transform="scale(0.015625)"/>
      <path id="DejaVuSans-Bold-4b" d="M 4056 2131 
L 4056 0 
L 2931 0 
L 2931 347 
L 2931 1625 
Q 2931 2084 2911 2256 
Q 2891 2428 2841 2509 
Q 2775 2619 2662 2680 
Q 2550 2741 2406 2741 
Q 2056 2741 1856 2470 
Q 1656 2200 1656 1722 
L 1656 0 
L 538 0 
L 538 4863 
L 1656 4863 
L 1656 2988 
Q 1909 3294 2193 3439 
Q 2478 3584 2822 3584 
Q 3428 3584 3742 3212 
Q 4056 2841 4056 2131 
z
" transform="scale(0.015625)"/>
      <path id="DejaVuSans-Bold-56" d="M 3272 3391 
L 3272 2541 
Q 2913 2691 2578 2766 
Q 2244 2841 1947 2841 
Q 1628 2841 1473 2761 
Q 1319 2681 1319 2516 
Q 1319 2381 1436 2309 
Q 1553 2238 1856 2203 
L 2053 2175 
Q 2913 2066 3209 1816 
Q 3506 1566 3506 1031 
Q 3506 472 3093 190 
Q 2681 -91 1863 -91 
Q 1516 -91 1145 -36 
Q 775 19 384 128 
L 384 978 
Q 719 816 1070 734 
Q 1422 653 1784 653 
Q 2113 653 2278 743 
Q 2444 834 2444 1013 
Q 2444 1163 2330 1236 
Q 2216 1309 1875 1350 
L 1678 1375 
Q 931 1469 631 1722 
Q 331 1975 331 2491 
Q 331 3047 712 3315 
Q 1094 3584 1881 3584 
Q 2191 3584 2531 3537 
Q 2872 3491 3272 3391 
z
" transform="scale(0.015625)"/>
      <path id="DejaVuSans-Bold-4f" d="M 538 4863 
L 1656 4863 
L 1656 0 
L 538 0 
L 538 4863 
z
" transform="scale(0.015625)"/>
      <path id="DejaVuSans-Bold-53" d="M 1656 506 
L 1656 -1331 
L 538 -1331 
L 538 3500 
L 1656 3500 
L 1656 2988 
Q 1888 3294 2169 3439 
Q 2450 3584 2816 3584 
Q 3463 3584 3878 3070 
Q 4294 2556 4294 1747 
Q 4294 938 3878 423 
Q 3463 -91 2816 -91 
Q 2450 -91 2169 54 
Q 1888 200 1656 506 
z
M 2400 2772 
Q 2041 2772 1848 2508 
Q 1656 2244 1656 1747 
Q 1656 1250 1848 986 
Q 2041 722 2400 722 
Q 2759 722 2948 984 
Q 3138 1247 3138 1747 
Q 3138 2247 2948 2509 
Q 2759 2772 2400 2772 
z
" transform="scale(0.015625)"/>
      <path id="DejaVuSans-Bold-c" d="M 513 -844 
Q 913 -100 1113 609 
Q 1313 1319 1313 2009 
Q 1313 2700 1113 3408 
Q 913 4116 513 4856 
L 1441 4856 
Q 1916 4091 2145 3389 
Q 2375 2688 2375 2003 
Q 2375 1319 2147 623 
Q 1919 -72 1441 -844 
L 513 -844 
z
" transform="scale(0.015625)"/>
     </defs>
     <use xlink:href="#DejaVuSans-Bold-b"/>
     <use xlink:href="#DejaVuSans-Bold-52" transform="translate(45.703125 0)"/>
     <use xlink:href="#DejaVuSans-Bold-51" transform="translate(114.40625 0)"/>
     <use xlink:href="#DejaVuSans-Bold-3" transform="translate(185.59375 0)"/>
     <use xlink:href="#DejaVuSans-Bold-57" transform="translate(220.40625 0)"/>
     <use xlink:href="#DejaVuSans-Bold-4b" transform="translate(268.203125 0)"/>
     <use xlink:href="#DejaVuSans-Bold-48" transform="translate(339.390625 0)"/>
     <use xlink:href="#DejaVuSans-Bold-3" transform="translate(407.21875 0)"/>
     <use xlink:href="#DejaVuSans-Bold-56" transform="translate(442.03125 0)"/>
     <use xlink:href="#DejaVuSans-Bold-4f" transform="translate(501.546875 0)"/>
     <use xlink:href="#DejaVuSans-Bold-52" transform="translate(535.828125 0)"/>
     <use xlink:href="#DejaVuSans-Bold-53" transform="translate(604.53125 0)"/>
     <use xlink:href="#DejaVuSans-Bold-48" transform="translate(676.109375 0)"/>
     <use xlink:href="#DejaVuSans-Bold-c" transform="translate(743.9375 0)"/>
    </g>
   </g>
   <g id="text_12">
    <!-- compute-bound -->
    <g style="fill: #9c5a00" transform="translate(368.666511 41.330393) scale(0.09 -0.09)">
     <defs>
      <path id="DejaVuSans-Bold-46" d="M 3366 3391 
L 3366 2478 
Q 3138 2634 2908 2709 
Q 2678 2784 2431 2784 
Q 1963 2784 1702 2511 
Q 1441 2238 1441 1747 
Q 1441 1256 1702 982 
Q 1963 709 2431 709 
Q 2694 709 2930 787 
Q 3166 866 3366 1019 
L 3366 103 
Q 3103 6 2833 -42 
Q 2563 -91 2291 -91 
Q 1344 -91 809 395 
Q 275 881 275 1747 
Q 275 2613 809 3098 
Q 1344 3584 2291 3584 
Q 2566 3584 2833 3536 
Q 3100 3488 3366 3391 
z
" transform="scale(0.015625)"/>
     </defs>
     <use xlink:href="#DejaVuSans-Bold-46"/>
     <use xlink:href="#DejaVuSans-Bold-52" transform="translate(59.28125 0)"/>
     <use xlink:href="#DejaVuSans-Bold-50" transform="translate(127.984375 0)"/>
     <use xlink:href="#DejaVuSans-Bold-53" transform="translate(232.1875 0)"/>
     <use xlink:href="#DejaVuSans-Bold-58" transform="translate(303.765625 0)"/>
     <use xlink:href="#DejaVuSans-Bold-57" transform="translate(374.953125 0)"/>
     <use xlink:href="#DejaVuSans-Bold-48" transform="translate(422.75 0)"/>
     <use xlink:href="#DejaVuSans-Bold-10" transform="translate(490.578125 0)"/>
     <use xlink:href="#DejaVuSans-Bold-45" transform="translate(532.078125 0)"/>
     <use xlink:href="#DejaVuSans-Bold-52" transform="translate(603.65625 0)"/>
     <use xlink:href="#DejaVuSans-Bold-58" transform="translate(672.359375 0)"/>
     <use xlink:href="#DejaVuSans-Bold-51" transform="translate(743.546875 0)"/>
     <use xlink:href="#DejaVuSans-Bold-47" transform="translate(814.734375 0)"/>
    </g>
    <!-- (on the roof) -->
    <g style="fill: #9c5a00" transform="translate(376.242683 52.132854) scale(0.09 -0.09)">
     <defs>
      <path id="DejaVuSans-Bold-49" d="M 2841 4863 
L 2841 4128 
L 2222 4128 
Q 1984 4128 1890 4042 
Q 1797 3956 1797 3744 
L 1797 3500 
L 2753 3500 
L 2753 2700 
L 1797 2700 
L 1797 0 
L 678 0 
L 678 2700 
L 122 2700 
L 122 3500 
L 678 3500 
L 678 3744 
Q 678 4316 997 4589 
Q 1316 4863 1984 4863 
L 2841 4863 
z
" transform="scale(0.015625)"/>
     </defs>
     <use xlink:href="#DejaVuSans-Bold-b"/>
     <use xlink:href="#DejaVuSans-Bold-52" transform="translate(45.703125 0)"/>
     <use xlink:href="#DejaVuSans-Bold-51" transform="translate(114.40625 0)"/>
     <use xlink:href="#DejaVuSans-Bold-3" transform="translate(185.59375 0)"/>
     <use xlink:href="#DejaVuSans-Bold-57" transform="translate(220.40625 0)"/>
     <use xlink:href="#DejaVuSans-Bold-4b" transform="translate(268.203125 0)"/>
     <use xlink:href="#DejaVuSans-Bold-48" transform="translate(339.390625 0)"/>
     <use xlink:href="#DejaVuSans-Bold-3" transform="translate(407.21875 0)"/>
     <use xlink:href="#DejaVuSans-Bold-55" transform="translate(442.03125 0)"/>
     <use xlink:href="#DejaVuSans-Bold-52" transform="translate(491.34375 0)"/>
     <use xlink:href="#DejaVuSans-Bold-52" transform="translate(560.046875 0)"/>
     <use xlink:href="#DejaVuSans-Bold-49" transform="translate(628.75 0)"/>
     <use xlink:href="#DejaVuSans-Bold-c" transform="translate(672.25 0)"/>
    </g>
   </g>
   <g id="patch_9">
    <path d="M 146.659683 318.770413 
Q 141.896477 318.206712 137.133271 317.64301 
" style="fill: none; opacity: 0.6; stroke: #1f77b4; stroke-width: 0.6; stroke-linecap: round"/>
   </g>
   <g id="text_13">
    <!-- Python loops -->
    <g style="fill: #1f77b4" transform="translate(150.641697 325.65125) scale(0.1 -0.1)">
     <defs>
      <path id="DejaVuSans-33" d="M 1259 4147 
L 1259 2394 
L 2053 2394 
Q 2494 2394 2734 2622 
Q 2975 2850 2975 3272 
Q 2975 3691 2734 3919 
Q 2494 4147 2053 4147 
L 1259 4147 
z
M 628 4666 
L 2053 4666 
Q 2838 4666 3239 4311 
Q 3641 3956 3641 3272 
Q 3641 2581 3239 2228 
Q 2838 1875 2053 1875 
L 1259 1875 
L 1259 0 
L 628 0 
L 628 4666 
z
" transform="scale(0.015625)"/>
      <path id="DejaVuSans-4f" d="M 603 4863 
L 1178 4863 
L 1178 0 
L 603 0 
L 603 4863 
z
" transform="scale(0.015625)"/>
     </defs>
     <use xlink:href="#DejaVuSans-33"/>
     <use xlink:href="#DejaVuSans-5c" transform="translate(60.296875 0)"/>
     <use xlink:href="#DejaVuSans-57" transform="translate(119.484375 0)"/>
     <use xlink:href="#DejaVuSans-4b" transform="translate(158.6875 0)"/>
     <use xlink:href="#DejaVuSans-52" transform="translate(222.0625 0)"/>
     <use xlink:href="#DejaVuSans-51" transform="translate(283.25 0)"/>
     <use xlink:href="#DejaVuSans-3" transform="translate(346.625 0)"/>
     <use xlink:href="#DejaVuSans-4f" transform="translate(378.40625 0)"/>
     <use xlink:href="#DejaVuSans-52" transform="translate(406.1875 0)"/>
     <use xlink:href="#DejaVuSans-52" transform="translate(467.375 0)"/>
     <use xlink:href="#DejaVuSans-53" transform="translate(528.5625 0)"/>
     <use xlink:href="#DejaVuSans-56" transform="translate(592.046875 0)"/>
    </g>
   </g>
   <g id="patch_10">
    <path d="M 146.666974 177.732433 
Q 141.894601 177.02237 137.122228 176.312308 
" style="fill: none; opacity: 0.6; stroke: #ff7f0e; stroke-width: 0.6; stroke-linecap: round"/>
   </g>
   <g id="text_14">
    <!-- Software -->
    <g style="fill: #ff7f0e" transform="translate(150.641697 184.201318) scale(0.1 -0.1)">
     <defs>
      <path id="DejaVuSans-36" d="M 3425 4513 
L 3425 3897 
Q 3066 4069 2747 4153 
Q 2428 4238 2131 4238 
Q 1616 4238 1336 4038 
Q 1056 3838 1056 3469 
Q 1056 3159 1242 3001 
Q 1428 2844 1947 2747 
L 2328 2669 
Q 3034 2534 3370 2195 
Q 3706 1856 3706 1288 
Q 3706 609 3251 259 
Q 2797 -91 1919 -91 
Q 1588 -91 1214 -16 
Q 841 59 441 206 
L 441 856 
Q 825 641 1194 531 
Q 1563 422 1919 422 
Q 2459 422 2753 634 
Q 3047 847 3047 1241 
Q 3047 1584 2836 1778 
Q 2625 1972 2144 2069 
L 1759 2144 
Q 1053 2284 737 2584 
Q 422 2884 422 3419 
Q 422 4038 858 4394 
Q 1294 4750 2059 4750 
Q 2388 4750 2728 4690 
Q 3069 4631 3425 4513 
z
" transform="scale(0.015625)"/>
      <path id="DejaVuSans-5a" d="M 269 3500 
L 844 3500 
L 1563 769 
L 2278 3500 
L 2956 3500 
L 3675 769 
L 4391 3500 
L 4966 3500 
L 4050 0 
L 3372 0 
L 2619 2869 
L 1863 0 
L 1184 0 
L 269 3500 
z
" transform="scale(0.015625)"/>
     </defs>
     <use xlink:href="#DejaVuSans-36"/>
     <use xlink:href="#DejaVuSans-52" transform="translate(63.484375 0)"/>
     <use xlink:href="#DejaVuSans-49" transform="translate(124.671875 0)"/>
     <use xlink:href="#DejaVuSans-57" transform="translate(158.125 0)"/>
     <use xlink:href="#DejaVuSans-5a" transform="translate(197.328125 0)"/>
     <use xlink:href="#DejaVuSans-44" transform="translate(279.109375 0)"/>
     <use xlink:href="#DejaVuSans-55" transform="translate(340.390625 0)"/>
     <use xlink:href="#DejaVuSans-48" transform="translate(379.296875 0)"/>
    </g>
   </g>
   <g id="patch_11">
    <path d="M 148.416517 168.514718 
Q 142.716765 170.093895 137.017014 171.673073 
" style="fill: none; opacity: 0.6; stroke: #d62728; stroke-width: 0.6; stroke-linecap: round"/>
   </g>
   <g id="text_15">
    <!-- HLS naive -->
    <g style="fill: #d62728" transform="translate(150.641697 163.578824) scale(0.1 -0.1)">
     <defs>
      <path id="DejaVuSans-2b" d="M 628 4666 
L 1259 4666 
L 1259 2753 
L 3553 2753 
L 3553 4666 
L 4184 4666 
L 4184 0 
L 3553 0 
L 3553 2222 
L 1259 2222 
L 1259 0 
L 628 0 
L 628 4666 
z
" transform="scale(0.015625)"/>
      <path id="DejaVuSans-2f" d="M 628 4666 
L 1259 4666 
L 1259 531 
L 3531 531 
L 3531 0 
L 628 0 
L 628 4666 
z
" transform="scale(0.015625)"/>
      <path id="DejaVuSans-59" d="M 191 3500 
L 800 3500 
L 1894 563 
L 2988 3500 
L 3597 3500 
L 2284 0 
L 1503 0 
L 191 3500 
z
" transform="scale(0.015625)"/>
     </defs>
     <use xlink:href="#DejaVuSans-2b"/>
     <use xlink:href="#DejaVuSans-2f" transform="translate(75.203125 0)"/>
     <use xlink:href="#DejaVuSans-36" transform="translate(130.921875 0)"/>
     <use xlink:href="#DejaVuSans-3" transform="translate(194.40625 0)"/>
     <use xlink:href="#DejaVuSans-51" transform="translate(226.1875 0)"/>
     <use xlink:href="#DejaVuSans-44" transform="translate(289.5625 0)"/>
     <use xlink:href="#DejaVuSans-4c" transform="translate(350.84375 0)"/>
     <use xlink:href="#DejaVuSans-59" transform="translate(378.625 0)"/>
     <use xlink:href="#DejaVuSans-48" transform="translate(437.8125 0)"/>
    </g>
   </g>
   <g id="patch_12">
    <path d="M 316.610915 305.043743 
Q 311.868868 305.043743 307.126821 305.043743 
" style="fill: none; opacity: 0.6; stroke: #2ca02c; stroke-width: 0.6; stroke-linecap: round"/>
   </g>
   <g id="text_16">
    <!-- RTL core -->
    <g style="fill: #2ca02c" transform="translate(320.606245 307.641399) scale(0.1 -0.1)">
     <defs>
      <path id="DejaVuSans-37" d="M -19 4666 
L 3928 4666 
L 3928 4134 
L 2272 4134 
L 2272 0 
L 1638 0 
L 1638 4134 
L -19 4134 
L -19 4666 
z
" transform="scale(0.015625)"/>
     </defs>
     <use xlink:href="#DejaVuSans-35"/>
     <use xlink:href="#DejaVuSans-37" transform="translate(62.203125 0)"/>
     <use xlink:href="#DejaVuSans-2f" transform="translate(123.28125 0)"/>
     <use xlink:href="#DejaVuSans-3" transform="translate(179 0)"/>
     <use xlink:href="#DejaVuSans-46" transform="translate(210.78125 0)"/>
     <use xlink:href="#DejaVuSans-52" transform="translate(265.765625 0)"/>
     <use xlink:href="#DejaVuSans-55" transform="translate(326.953125 0)"/>
     <use xlink:href="#DejaVuSans-48" transform="translate(365.859375 0)"/>
    </g>
   </g>
   <g id="patch_13">
    <path d="M 316.60891 114.500528 
Q 311.867568 114.500528 307.126227 114.500528 
" style="fill: none; opacity: 0.6; stroke: #9467bd; stroke-width: 0.6; stroke-linecap: round"/>
   </g>
   <g id="text_17">
    <!-- HLS line-buffer -->
    <g style="fill: #9467bd" transform="translate(320.606245 117.098575) scale(0.1 -0.1)">
     <defs>
      <path id="DejaVuSans-10" d="M 313 2009 
L 1997 2009 
L 1997 1497 
L 313 1497 
L 313 2009 
z
" transform="scale(0.015625)"/>
      <path id="DejaVuSans-13ae" d="M 4531 4863 
L 4531 4384 
L 3981 4384 
Q 3672 4384 3551 4259 
Q 3431 4134 3431 3809 
L 3431 3500 
L 4378 3500 
L 4378 3053 
L 3431 3053 
L 3431 0 
L 2853 0 
L 2853 3053 
L 1275 3053 
L 1275 0 
L 697 0 
L 697 3053 
L 147 3053 
L 147 3500 
L 697 3500 
L 697 3744 
Q 697 4328 969 4595 
Q 1241 4863 1831 4863 
L 2375 4863 
L 2375 4384 
L 1825 4384 
Q 1516 4384 1394 4259 
Q 1275 4134 1275 3809 
L 1275 3500 
L 2853 3500 
L 2853 3744 
Q 2853 4328 3125 4595 
Q 3397 4863 3988 4863 
L 4531 4863 
z
" transform="scale(0.015625)"/>
     </defs>
     <use xlink:href="#DejaVuSans-2b"/>
     <use xlink:href="#DejaVuSans-2f" transform="translate(75.203125 0)"/>
     <use xlink:href="#DejaVuSans-36" transform="translate(130.921875 0)"/>
     <use xlink:href="#DejaVuSans-3" transform="translate(194.40625 0)"/>
     <use xlink:href="#DejaVuSans-4f" transform="translate(226.1875 0)"/>
     <use xlink:href="#DejaVuSans-4c" transform="translate(253.96875 0)"/>
     <use xlink:href="#DejaVuSans-51" transform="translate(281.75 0)"/>
     <use xlink:href="#DejaVuSans-48" transform="translate(345.125 0)"/>
     <use xlink:href="#DejaVuSans-10" transform="translate(406.65625 0)"/>
     <use xlink:href="#DejaVuSans-45" transform="translate(442.734375 0)"/>
     <use xlink:href="#DejaVuSans-58" transform="translate(506.21875 0)"/>
     <use xlink:href="#DejaVuSans-13ae" transform="translate(569.59375 0)"/>
     <use xlink:href="#DejaVuSans-48" transform="translate(638.484375 0)"/>
     <use xlink:href="#DejaVuSans-55" transform="translate(700.015625 0)"/>
    </g>
   </g>
   <g id="patch_14">
    <path d="M 316.607492 73.638592 
Q 311.866649 73.638592 307.125806 73.638592 
" style="fill: none; opacity: 0.6; stroke: #8c564b; stroke-width: 0.6; stroke-linecap: round"/>
   </g>
   <g id="text_18">
    <!-- HLS streaming -->
    <g style="fill: #8c564b" transform="translate(320.606245 76.236639) scale(0.1 -0.1)">
     <use xlink:href="#DejaVuSans-2b"/>
     <use xlink:href="#DejaVuSans-2f" transform="translate(75.203125 0)"/>
     <use xlink:href="#DejaVuSans-36" transform="translate(130.921875 0)"/>
     <use xlink:href="#DejaVuSans-3" transform="translate(194.40625 0)"/>
     <use xlink:href="#DejaVuSans-56" transform="translate(226.1875 0)"/>
     <use xlink:href="#DejaVuSans-57" transform="translate(278.28125 0)"/>
     <use xlink:href="#DejaVuSans-55" transform="translate(317.484375 0)"/>
     <use xlink:href="#DejaVuSans-48" transform="translate(356.390625 0)"/>
     <use xlink:href="#DejaVuSans-44" transform="translate(417.921875 0)"/>
     <use xlink:href="#DejaVuSans-50" transform="translate(479.203125 0)"/>
     <use xlink:href="#DejaVuSans-4c" transform="translate(576.609375 0)"/>
     <use xlink:href="#DejaVuSans-51" transform="translate(604.390625 0)"/>
     <use xlink:href="#DejaVuSans-4a" transform="translate(667.765625 0)"/>
    </g>
   </g>
   <g id="text_19">
    <!-- Roofline:  [PYNQ-Z2 @ 62.5 MHz] -->
    <g transform="translate(164.022344 21.436719) scale(0.12 -0.12)">
     <defs>
      <path id="DejaVuSans-13b0" d="M 1831 4863 
L 3431 4863 
L 3431 0 
L 2853 0 
L 2853 4384 
L 1825 4384 
Q 1516 4384 1395 4259 
Q 1275 4134 1275 3809 
L 1275 3500 
L 2222 3500 
L 2222 3053 
L 1275 3053 
L 1275 0 
L 697 0 
L 697 3053 
L 147 3053 
L 147 3500 
L 697 3500 
L 697 3744 
Q 697 4328 969 4595 
Q 1241 4863 1831 4863 
z
" transform="scale(0.015625)"/>
      <path id="DejaVuSans-1d" d="M 750 794 
L 1409 794 
L 1409 0 
L 750 0 
L 750 794 
z
M 750 3309 
L 1409 3309 
L 1409 2516 
L 750 2516 
L 750 3309 
z
" transform="scale(0.015625)"/>
      <path id="DejaVuSans-3e" d="M 550 4863 
L 1875 4863 
L 1875 4416 
L 1125 4416 
L 1125 -397 
L 1875 -397 
L 1875 -844 
L 550 -844 
L 550 4863 
z
" transform="scale(0.015625)"/>
      <path id="DejaVuSans-3c" d="M -13 4666 
L 666 4666 
L 1959 2747 
L 3244 4666 
L 3922 4666 
L 2272 2222 
L 2272 0 
L 1638 0 
L 1638 2222 
L -13 4666 
z
" transform="scale(0.015625)"/>
      <path id="DejaVuSans-31" d="M 628 4666 
L 1478 4666 
L 3547 763 
L 3547 4666 
L 4159 4666 
L 4159 0 
L 3309 0 
L 1241 3903 
L 1241 0 
L 628 0 
L 628 4666 
z
" transform="scale(0.015625)"/>
      <path id="DejaVuSans-34" d="M 2522 4238 
Q 1834 4238 1429 3725 
Q 1025 3213 1025 2328 
Q 1025 1447 1429 934 
Q 1834 422 2522 422 
Q 3209 422 3611 934 
Q 4013 1447 4013 2328 
Q 4013 3213 3611 3725 
Q 3209 4238 2522 4238 
z
M 3406 84 
L 4238 -825 
L 3475 -825 
L 2784 -78 
Q 2681 -84 2626 -87 
Q 2572 -91 2522 -91 
Q 1538 -91 948 567 
Q 359 1225 359 2328 
Q 359 3434 948 4092 
Q 1538 4750 2522 4750 
Q 3503 4750 4090 4092 
Q 4678 3434 4678 2328 
Q 4678 1516 4351 937 
Q 4025 359 3406 84 
z
" transform="scale(0.015625)"/>
      <path id="DejaVuSans-3d" d="M 359 4666 
L 4025 4666 
L 4025 4184 
L 1075 531 
L 4097 531 
L 4097 0 
L 288 0 
L 288 481 
L 3238 4134 
L 359 4134 
L 359 4666 
z
" transform="scale(0.015625)"/>
      <path id="DejaVuSans-23" d="M 2381 1678 
Q 2381 1231 2603 976 
Q 2825 722 3213 722 
Q 3597 722 3817 978 
Q 4038 1234 4038 1678 
Q 4038 2116 3813 2373 
Q 3588 2631 3206 2631 
Q 2828 2631 2604 2375 
Q 2381 2119 2381 1678 
z
M 4084 744 
Q 3897 503 3655 389 
Q 3413 275 3091 275 
Q 2553 275 2217 664 
Q 1881 1053 1881 1678 
Q 1881 2303 2218 2693 
Q 2556 3084 3091 3084 
Q 3413 3084 3656 2967 
Q 3900 2850 4084 2613 
L 4084 3022 
L 4531 3022 
L 4531 722 
Q 4988 791 5245 1139 
Q 5503 1488 5503 2041 
Q 5503 2375 5404 2669 
Q 5306 2963 5106 3213 
Q 4781 3622 4314 3839 
Q 3847 4056 3297 4056 
Q 2913 4056 2559 3954 
Q 2206 3853 1906 3653 
Q 1416 3334 1139 2817 
Q 863 2300 863 1697 
Q 863 1200 1042 765 
Q 1222 331 1563 0 
Q 1891 -325 2322 -495 
Q 2753 -666 3244 -666 
Q 3647 -666 4036 -530 
Q 4425 -394 4750 -141 
L 5031 -488 
Q 4641 -791 4180 -952 
Q 3719 -1113 3244 -1113 
Q 2666 -1113 2153 -908 
Q 1641 -703 1241 -313 
Q 841 78 631 592 
Q 422 1106 422 1697 
Q 422 2266 634 2781 
Q 847 3297 1241 3688 
Q 1644 4084 2172 4295 
Q 2700 4506 3291 4506 
Q 3953 4506 4520 4234 
Q 5088 3963 5472 3463 
Q 5706 3156 5829 2797 
Q 5953 2438 5953 2053 
Q 5953 1231 5456 756 
Q 4959 281 4084 263 
L 4084 744 
z
" transform="scale(0.015625)"/>
      <path id="DejaVuSans-19" d="M 2113 2584 
Q 1688 2584 1439 2293 
Q 1191 2003 1191 1497 
Q 1191 994 1439 701 
Q 1688 409 2113 409 
Q 2538 409 2786 701 
Q 3034 994 3034 1497 
Q 3034 2003 2786 2293 
Q 2538 2584 2113 2584 
z
M 3366 4563 
L 3366 3988 
Q 3128 4100 2886 4159 
Q 2644 4219 2406 4219 
Q 1781 4219 1451 3797 
Q 1122 3375 1075 2522 
Q 1259 2794 1537 2939 
Q 1816 3084 2150 3084 
Q 2853 3084 3261 2657 
Q 3669 2231 3669 1497 
Q 3669 778 3244 343 
Q 2819 -91 2113 -91 
Q 1303 -91 875 529 
Q 447 1150 447 2328 
Q 447 3434 972 4092 
Q 1497 4750 2381 4750 
Q 2619 4750 2861 4703 
Q 3103 4656 3366 4563 
z
" transform="scale(0.015625)"/>
      <path id="DejaVuSans-11" d="M 684 794 
L 1344 794 
L 1344 0 
L 684 0 
L 684 794 
z
" transform="scale(0.015625)"/>
      <path id="DejaVuSans-18" d="M 691 4666 
L 3169 4666 
L 3169 4134 
L 1269 4134 
L 1269 2991 
Q 1406 3038 1543 3061 
Q 1681 3084 1819 3084 
Q 2600 3084 3056 2656 
Q 3513 2228 3513 1497 
Q 3513 744 3044 326 
Q 2575 -91 1722 -91 
Q 1428 -91 1123 -41 
Q 819 9 494 109 
L 494 744 
Q 775 591 1075 516 
Q 1375 441 1709 441 
Q 2250 441 2565 725 
Q 2881 1009 2881 1497 
Q 2881 1984 2565 2268 
Q 2250 2553 1709 2553 
Q 1456 2553 1204 2497 
Q 953 2441 691 2322 
L 691 4666 
z
" transform="scale(0.015625)"/>
      <path id="DejaVuSans-5d" d="M 353 3500 
L 3084 3500 
L 3084 2975 
L 922 459 
L 3084 459 
L 3084 0 
L 275 0 
L 275 525 
L 2438 3041 
L 353 3041 
L 353 3500 
z
" transform="scale(0.015625)"/>
      <path id="DejaVuSans-40" d="M 1947 4863 
L 1947 -844 
L 622 -844 
L 622 -397 
L 1369 -397 
L 1369 4416 
L 622 4416 
L 622 4863 
L 1947 4863 
z
" transform="scale(0.015625)"/>
     </defs>
     <use xlink:href="#DejaVuSans-35"/>
     <use xlink:href="#DejaVuSans-52" transform="translate(65 0)"/>
     <use xlink:href="#DejaVuSans-52" transform="translate(126.1875 0)"/>
     <use xlink:href="#DejaVuSans-13b0" transform="translate(187.375 0)"/>
     <use xlink:href="#DejaVuSans-4c" transform="translate(250.359375 0)"/>
     <use xlink:href="#DejaVuSans-51" transform="translate(278.140625 0)"/>
     <use xlink:href="#DejaVuSans-48" transform="translate(341.515625 0)"/>
     <use xlink:href="#DejaVuSans-1d" transform="translate(403.046875 0)"/>
     <use xlink:href="#DejaVuSans-3" transform="translate(436.734375 0)"/>
     <use xlink:href="#DejaVuSans-3" transform="translate(468.515625 0)"/>
     <use xlink:href="#DejaVuSans-3e" transform="translate(500.296875 0)"/>
     <use xlink:href="#DejaVuSans-33" transform="translate(539.3125 0)"/>
     <use xlink:href="#DejaVuSans-3c" transform="translate(597.40625 0)"/>
     <use xlink:href="#DejaVuSans-31" transform="translate(658.484375 0)"/>
     <use xlink:href="#DejaVuSans-34" transform="translate(733.296875 0)"/>
     <use xlink:href="#DejaVuSans-10" transform="translate(814.796875 0)"/>
     <use xlink:href="#DejaVuSans-3d" transform="translate(850.875 0)"/>
     <use xlink:href="#DejaVuSans-15" transform="translate(919.375 0)"/>
     <use xlink:href="#DejaVuSans-3" transform="translate(983 0)"/>
     <use xlink:href="#DejaVuSans-23" transform="translate(1014.78125 0)"/>
     <use xlink:href="#DejaVuSans-3" transform="translate(1114.78125 0)"/>
     <use xlink:href="#DejaVuSans-19" transform="translate(1146.5625 0)"/>
     <use xlink:href="#DejaVuSans-15" transform="translate(1210.1875 0)"/>
     <use xlink:href="#DejaVuSans-11" transform="translate(1273.8125 0)"/>
     <use xlink:href="#DejaVuSans-18" transform="translate(1305.59375 0)"/>
     <use xlink:href="#DejaVuSans-3" transform="translate(1369.21875 0)"/>
     <use xlink:href="#DejaVuSans-30" transform="translate(1401 0)"/>
     <use xlink:href="#DejaVuSans-2b" transform="translate(1487.28125 0)"/>
     <use xlink:href="#DejaVuSans-5d" transform="translate(1562.484375 0)"/>
     <use xlink:href="#DejaVuSans-40" transform="translate(1614.96875 0)"/>
    </g>
   </g>
   <g id="line2d_121">
    <defs>
     <path id="m01015f411f" d="M 0 5.5 
C 1.458617 5.5 2.857689 4.920485 3.889087 3.889087 
C 4.920485 2.857689 5.5 1.458617 5.5 0 
C 5.5 -1.458617 4.920485 -2.857689 3.889087 -3.889087 
C 2.857689 -4.920485 1.458617 -5.5 0 -5.5 
C -1.458617 -5.5 -2.857689 -4.920485 -3.889087 -3.889087 
C -4.920485 -2.857689 -5.5 -1.458617 -5.5 0 
C -5.5 1.458617 -4.920485 2.857689 -3.889087 3.889087 
C -2.857689 4.920485 -1.458617 5.5 0 5.5 
z
" style="stroke: #1f77b4"/>
    </defs>
    <g clip-path="url(#p80613d7c30)">
     <use xlink:href="#m01015f411f" x="133.162559" y="317.173097" style="fill: #1f77b4; stroke: #1f77b4"/>
    </g>
   </g>
   <g id="line2d_122">
    <defs>
     <path id="m2215cf914a" d="M 0 5.5 
C 1.458617 5.5 2.857689 4.920485 3.889087 3.889087 
C 4.920485 2.857689 5.5 1.458617 5.5 0 
C 5.5 -1.458617 4.920485 -2.857689 3.889087 -3.889087 
C 2.857689 -4.920485 1.458617 -5.5 0 -5.5 
C -1.458617 -5.5 -2.857689 -4.920485 -3.889087 -3.889087 
C -4.920485 -2.857689 -5.5 -1.458617 -5.5 0 
C -5.5 1.458617 -4.920485 2.857689 -3.889087 3.889087 
C -2.857689 4.920485 -1.458617 5.5 0 5.5 
z
" style="stroke: #ff7f0e"/>
    </defs>
    <g clip-path="url(#p80613d7c30)">
     <use xlink:href="#m2215cf914a" x="133.162559" y="175.723164" style="fill: #ff7f0e; stroke: #ff7f0e"/>
    </g>
   </g>
   <g id="line2d_123">
    <defs>
     <path id="m46e11e3f3f" d="M 0 5.5 
C 1.458617 5.5 2.857689 4.920485 3.889087 3.889087 
C 4.920485 2.857689 5.5 1.458617 5.5 0 
C 5.5 -1.458617 4.920485 -2.857689 3.889087 -3.889087 
C 2.857689 -4.920485 1.458617 -5.5 0 -5.5 
C -1.458617 -5.5 -2.857689 -4.920485 -3.889087 -3.889087 
C -4.920485 -2.857689 -5.5 -1.458617 -5.5 0 
C -5.5 1.458617 -4.920485 2.857689 -3.889087 3.889087 
C -2.857689 4.920485 -1.458617 5.5 0 5.5 
z
" style="stroke: #2ca02c"/>
    </defs>
    <g clip-path="url(#p80613d7c30)">
     <use xlink:href="#m46e11e3f3f" x="303.127108" y="305.043743" style="fill: #2ca02c; stroke: #2ca02c"/>
    </g>
   </g>
   <g id="line2d_124">
    <defs>
     <path id="m4958b7ca21" d="M 0 5.5 
C 1.458617 5.5 2.857689 4.920485 3.889087 3.889087 
C 4.920485 2.857689 5.5 1.458617 5.5 0 
C 5.5 -1.458617 4.920485 -2.857689 3.889087 -3.889087 
C 2.857689 -4.920485 1.458617 -5.5 0 -5.5 
C -1.458617 -5.5 -2.857689 -4.920485 -3.889087 -3.889087 
C -4.920485 -2.857689 -5.5 -1.458617 -5.5 0 
C -5.5 1.458617 -4.920485 2.857689 -3.889087 3.889087 
C -2.857689 4.920485 -1.458617 5.5 0 5.5 
z
" style="stroke: #d62728"/>
    </defs>
    <g clip-path="url(#p80613d7c30)">
     <use xlink:href="#m4958b7ca21" x="133.162559" y="172.740992" style="fill: #d62728; stroke: #d62728"/>
    </g>
   </g>
   <g id="line2d_125">
    <defs>
     <path id="m7cd2f741ab" d="M 0 5.5 
C 1.458617 5.5 2.857689 4.920485 3.889087 3.889087 
C 4.920485 2.857689 5.5 1.458617 5.5 0 
C 5.5 -1.458617 4.920485 -2.857689 3.889087 -3.889087 
C 2.857689 -4.920485 1.458617 -5.5 0 -5.5 
C -1.458617 -5.5 -2.857689 -4.920485 -3.889087 -3.889087 
C -4.920485 -2.857689 -5.5 -1.458617 -5.5 0 
C -5.5 1.458617 -4.920485 2.857689 -3.889087 3.889087 
C -2.857689 4.920485 -1.458617 5.5 0 5.5 
z
" style="stroke: #9467bd"/>
    </defs>
    <g clip-path="url(#p80613d7c30)">
     <use xlink:href="#m7cd2f741ab" x="303.127108" y="114.500528" style="fill: #9467bd; stroke: #9467bd"/>
    </g>
   </g>
   <g id="line2d_126">
    <defs>
     <path id="m054748b119" d="M 0 5.5 
C 1.458617 5.5 2.857689 4.920485 3.889087 3.889087 
C 4.920485 2.857689 5.5 1.458617 5.5 0 
C 5.5 -1.458617 4.920485 -2.857689 3.889087 -3.889087 
C 2.857689 -4.920485 1.458617 -5.5 0 -5.5 
C -1.458617 -5.5 -2.857689 -4.920485 -3.889087 -3.889087 
C -4.920485 -2.857689 -5.5 -1.458617 -5.5 0 
C -5.5 1.458617 -4.920485 2.857689 -3.889087 3.889087 
C -2.857689 4.920485 -1.458617 5.5 0 5.5 
z
" style="stroke: #8c564b"/>
    </defs>
    <g clip-path="url(#p80613d7c30)">
     <use xlink:href="#m054748b119" x="303.127108" y="73.638592" style="fill: #8c564b; stroke: #8c564b"/>
    </g>
   </g>
   <g id="legend_1">
    <g id="patch_15">
     <path d="M 265.261406 268.085797 
L 445.905156 268.085797 
Q 447.905156 268.085797 447.905156 266.085797 
L 447.905156 222.083453 
Q 447.905156 220.083453 445.905156 220.083453 
L 265.261406 220.083453 
Q 263.261406 220.083453 263.261406 222.083453 
L 263.261406 266.085797 
Q 263.261406 268.085797 265.261406 268.085797 
z
" style="fill: #ffffff; opacity: 0.9; stroke: #cccccc; stroke-linejoin: miter"/>
    </g>
    <g id="line2d_127">
     <path d="M 267.261406 228.181891 
L 277.261406 228.181891 
L 287.261406 228.181891 
" style="fill: none; stroke: #000000; stroke-width: 2.5; stroke-linecap: square"/>
    </g>
    <g id="text_20">
     <!-- roofline (attainable) -->
     <g transform="translate(295.261406 231.681891) scale(0.1 -0.1)">
      <use xlink:href="#DejaVuSans-55"/>
      <use xlink:href="#DejaVuSans-52" transform="translate(38.90625 0)"/>
      <use xlink:href="#DejaVuSans-52" transform="translate(100.09375 0)"/>
      <use xlink:href="#DejaVuSans-13b0" transform="translate(161.28125 0)"/>
      <use xlink:href="#DejaVuSans-4c" transform="translate(224.265625 0)"/>
      <use xlink:href="#DejaVuSans-51" transform="translate(252.046875 0)"/>
      <use xlink:href="#DejaVuSans-48" transform="translate(315.421875 0)"/>
      <use xlink:href="#DejaVuSans-3" transform="translate(376.953125 0)"/>
      <use xlink:href="#DejaVuSans-b" transform="translate(408.734375 0)"/>
      <use xlink:href="#DejaVuSans-44" transform="translate(447.75 0)"/>
      <use xlink:href="#DejaVuSans-57" transform="translate(509.03125 0)"/>
      <use xlink:href="#DejaVuSans-57" transform="translate(548.234375 0)"/>
      <use xlink:href="#DejaVuSans-44" transform="translate(587.4375 0)"/>
      <use xlink:href="#DejaVuSans-4c" transform="translate(648.71875 0)"/>
      <use xlink:href="#DejaVuSans-51" transform="translate(676.5 0)"/>
      <use xlink:href="#DejaVuSans-44" transform="translate(739.875 0)"/>
      <use xlink:href="#DejaVuSans-45" transform="translate(801.15625 0)"/>
      <use xlink:href="#DejaVuSans-4f" transform="translate(864.640625 0)"/>
      <use xlink:href="#DejaVuSans-48" transform="translate(892.421875 0)"/>
      <use xlink:href="#DejaVuSans-c" transform="translate(953.953125 0)"/>
     </g>
    </g>
    <g id="line2d_128">
     <path d="M 267.261406 243.182672 
L 277.261406 243.182672 
L 287.261406 243.182672 
" style="fill: none; stroke-dasharray: 4.44,1.92; stroke-dashoffset: 0; stroke: #808080; stroke-opacity: 0.7; stroke-width: 1.2"/>
    </g>
    <g id="text_21">
     <!-- compute ceiling (62.5 Mpix/s) -->
     <g transform="translate(295.261406 246.682672) scale(0.1 -0.1)">
      <use xlink:href="#DejaVuSans-46"/>
      <use xlink:href="#DejaVuSans-52" transform="translate(54.984375 0)"/>
      <use xlink:href="#DejaVuSans-50" transform="translate(116.171875 0)"/>
      <use xlink:href="#DejaVuSans-53" transform="translate(213.578125 0)"/>
      <use xlink:href="#DejaVuSans-58" transform="translate(277.0625 0)"/>
      <use xlink:href="#DejaVuSans-57" transform="translate(340.4375 0)"/>
      <use xlink:href="#DejaVuSans-48" transform="translate(379.640625 0)"/>
      <use xlink:href="#DejaVuSans-3" transform="translate(441.171875 0)"/>
      <use xlink:href="#DejaVuSans-46" transform="translate(472.953125 0)"/>
      <use xlink:href="#DejaVuSans-48" transform="translate(527.9375 0)"/>
      <use xlink:href="#DejaVuSans-4c" transform="translate(589.46875 0)"/>
      <use xlink:href="#DejaVuSans-4f" transform="translate(617.25 0)"/>
      <use xlink:href="#DejaVuSans-4c" transform="translate(645.03125 0)"/>
      <use xlink:href="#DejaVuSans-51" transform="translate(672.8125 0)"/>
      <use xlink:href="#DejaVuSans-4a" transform="translate(736.1875 0)"/>
      <use xlink:href="#DejaVuSans-3" transform="translate(799.671875 0)"/>
      <use xlink:href="#DejaVuSans-b" transform="translate(831.453125 0)"/>
      <use xlink:href="#DejaVuSans-19" transform="translate(870.46875 0)"/>
      <use xlink:href="#DejaVuSans-15" transform="translate(934.09375 0)"/>
      <use xlink:href="#DejaVuSans-11" transform="translate(997.71875 0)"/>
      <use xlink:href="#DejaVuSans-18" transform="translate(1029.5 0)"/>
      <use xlink:href="#DejaVuSans-3" transform="translate(1093.125 0)"/>
      <use xlink:href="#DejaVuSans-30" transform="translate(1124.90625 0)"/>
      <use xlink:href="#DejaVuSans-53" transform="translate(1211.1875 0)"/>
      <use xlink:href="#DejaVuSans-4c" transform="translate(1274.671875 0)"/>
      <use xlink:href="#DejaVuSans-5b" transform="translate(1302.453125 0)"/>
      <use xlink:href="#DejaVuSans-12" transform="translate(1361.640625 0)"/>
      <use xlink:href="#DejaVuSans-56" transform="translate(1395.328125 0)"/>
      <use xlink:href="#DejaVuSans-c" transform="translate(1447.421875 0)"/>
     </g>
    </g>
    <g id="line2d_129">
     <path d="M 267.261406 258.183453 
L 277.261406 258.183453 
L 287.261406 258.183453 
" style="fill: none; stroke-dasharray: 1.2,1.98; stroke-dashoffset: 0; stroke: #808080; stroke-opacity: 0.7; stroke-width: 1.2"/>
    </g>
    <g id="text_22">
     <!-- DRAM-bandwidth ceiling -->
     <g transform="translate(295.261406 261.683453) scale(0.1 -0.1)">
      <use xlink:href="#DejaVuSans-27"/>
      <use xlink:href="#DejaVuSans-35" transform="translate(77 0)"/>
      <use xlink:href="#DejaVuSans-24" transform="translate(142.4375 0)"/>
      <use xlink:href="#DejaVuSans-30" transform="translate(210.84375 0)"/>
      <use xlink:href="#DejaVuSans-10" transform="translate(297.125 0)"/>
      <use xlink:href="#DejaVuSans-45" transform="translate(333.203125 0)"/>
      <use xlink:href="#DejaVuSans-44" transform="translate(396.6875 0)"/>
      <use xlink:href="#DejaVuSans-51" transform="translate(457.96875 0)"/>
      <use xlink:href="#DejaVuSans-47" transform="translate(521.34375 0)"/>
      <use xlink:href="#DejaVuSans-5a" transform="translate(584.828125 0)"/>
      <use xlink:href="#DejaVuSans-4c" transform="translate(666.609375 0)"/>
      <use xlink:href="#DejaVuSans-47" transform="translate(694.390625 0)"/>
      <use xlink:href="#DejaVuSans-57" transform="translate(757.875 0)"/>
      <use xlink:href="#DejaVuSans-4b" transform="translate(797.078125 0)"/>
      <use xlink:href="#DejaVuSans-3" transform="translate(860.453125 0)"/>
      <use xlink:href="#DejaVuSans-46" transform="translate(892.234375 0)"/>
      <use xlink:href="#DejaVuSans-48" transform="translate(947.21875 0)"/>
      <use xlink:href="#DejaVuSans-4c" transform="translate(1008.75 0)"/>
      <use xlink:href="#DejaVuSans-4f" transform="translate(1036.53125 0)"/>
      <use xlink:href="#DejaVuSans-4c" transform="translate(1064.3125 0)"/>
      <use xlink:href="#DejaVuSans-51" transform="translate(1092.09375 0)"/>
      <use xlink:href="#DejaVuSans-4a" transform="translate(1155.46875 0)"/>
     </g>
    </g>
   </g>
  </g>
 </g>
 <defs>
  <clipPath id="p80613d7c30">
   <rect x="59.962813" y="27.436719" width="406.597188" height="321.077891"/>
  </clipPath>
 </defs>
</svg>
